<svg width="823" height="823" viewBox="0 0 823 823" fill="none" xmlns="http://www.w3.org/2000/svg">
<path d="M690.7 609.5C792.3 510.7 797.5 359.2 614.1 189.3C587.5 164.6 574.5 130.2 548.1 111.7C468.1 55.6 355.8 67 285.1 150.3C246.4 195.9 230.8 258.5 190.6 303.2C145.5 353.4 91.4999 402.2 70.9999 470.6C57.3999 515.9 59.6999 565.3 75.1999 609.6C298 649.2 508.6 661.4 690.7 609.5Z" fill="#CCE9FF"/>
<path d="M609.7 514C609.7 514 596.5 594.6 646.1 613.5C695.7 632.4 683.2 593.2 683.2 593.2C683.2 593.2 702.3 586.6 646.4 559.4C620.1 546.6 609.7 514 609.7 514Z" fill="#2A94F4"/>
<path d="M674.1 618.6C674.1 618.6 744.1 619.1 759.4 525.1C774.6 431.1 810.1 413.3 810.1 413.3C810.1 413.3 657.9 431.1 674.1 618.6Z" fill="#0E538C"/>
<path d="M672 616.1C688.3 640.3 729 566.4 716 518.7C703 470.9 677.5 442.2 677.2 408.4C677.2 408.3 591.7 497.1 672 616.1Z" fill="#FFBE55"/>
<path d="M18.8999 534.2C18.8999 534.2 36.5999 613.9 89.6999 613C142.8 612.1 116.6 580.3 116.6 580.3C116.6 580.3 131.9 567 69.8999 562.6C40.6999 560.6 18.8999 534.2 18.8999 534.2Z" fill="#2A94F4"/>
<path d="M113 608.8C113 608.8 166.7 592 150.1 532.5C133.6 473 155.3 453.8 155.3 453.8C155.3 453.8 44.4001 501.5 113 608.8Z" fill="#FFBE55"/>
<path d="M107.6 606.8C131.7 623.2 142.1 539.5 112.2 500C82.4001 460.5 48.0001 443.3 35.2001 412C35.2001 412 -11.1999 526.3 107.6 606.8Z" fill="#0E538C"/>
<path d="M380.1 609.4L392.7 625.6C392.7 625.6 375.8 644.4 381.4 642.7C387.1 640.9 418.2 615.9 418.2 615.9C418.2 615.9 403.2 595.7 403.4 595.6C403.7 595.5 380.1 609.4 380.1 609.4Z" fill="#0B4870"/>
<path d="M361.6 487.9L414.9 600.2L381 619.3L325.6 518.7L329.1 485.6L361.6 487.9Z" fill="#0B4870"/>
<path d="M499.7 520.6L539.6 656.5L544.2 656.4L513.5 519.8L499.7 520.6ZM427.6 522.8L397.2 657.3L402.6 657.2L443.3 522.4L427.6 522.8ZM463.1 519L467.8 655.7L474.2 655.6L477 519.2L463.1 519Z" fill="#D3D3D3"/>
<path d="M426.2 577L517.3 572.2L517.9 581.6L419.3 587.5L426.2 577Z" fill="#D3D3D3"/>
<path opacity="0.15" d="M427.5 522.8L426.1 529.7L441.2 529.4L443.1 522.5L427.5 522.8ZM463.2 522.3L463.4 528.9L476.8 528.6L477 520.7L463.2 522.3Z" fill="#D3D3D3"/>
<path opacity="0.5" d="M465 574.5L465.3 584.3L459.5 584.4L457.3 574.9L466.5 574.4M476.8 574.4V584.1L481.2 583.8L482.4 574.1L476.8 574.4Z" fill="#D3D3D3"/>
<path d="M396.2 513C409.1 506.7 461.4 510.1 461.4 510.1C461.4 510.1 446.6 326.8 465.7 325.3C484.8 323.8 528 310.1 535.8 337.8C544 366.9 532.9 522.7 522 521.2C497.1 517.8 420.1 526.7 396.9 521.2C391 519.8 396.2 513 396.2 513Z" fill="#FFBE55"/>
<path d="M519.4 341C519.5 341 519.8 341.5 520.5 342.5C520.8 343 521.2 343.6 521.6 344.4C522 345.2 522.4 346.1 522.9 347.1C524.7 351.2 526.6 357.6 527.4 365.6C528.3 373.6 528.3 383.2 528.2 393.8C528 404.4 527.4 416 526.4 428.2C525.4 440.4 524.3 452 523.2 462.5C522.1 473 521 482.5 519.6 490.4C518.2 498.3 516.3 504.6 514.8 508.8C513.3 513 512.1 515.2 512 515.2C511.8 515.1 512.6 512.8 513.8 508.5C515 504.2 516.5 498 517.7 490.1C518.9 482.2 519.8 472.8 520.7 462.3C521.7 451.8 522.8 440.2 523.7 428.1C524.6 416 525.4 404.4 525.7 393.8C526 383.3 526.2 373.8 525.5 365.9C524.9 358 523.4 351.7 521.9 347.6C520.4 343.3 519.2 341.1 519.4 341Z" fill="#EAA43F"/>
<path d="M325.7 406.9L320.9 404.4C320.9 404.4 317.8 403.3 312.8 400.3C311.5 399.5 310.3 398.5 309.4 397.4C308.2 396 306.7 394.1 306.1 392.8C305.4 391.2 303.3 391.1 302.9 392.5C302.6 393.9 304.3 398.3 308.3 402.2C312.3 406.1 303.9 404.9 300.8 404.6C297.7 404.2 288.2 403.5 287.4 404.4C286.3 405.6 287.5 407.2 290.6 407.5C293.7 407.8 302.9 409.4 302.8 411C302.7 412.6 287 410.5 287 410.5C287 410.5 283.7 409.5 283.5 411.4C283.1 414.7 299.8 415.8 301.4 415.8C302.5 415.8 302.4 417.6 301.2 417.5C300 417.4 285.6 415 285.2 418.4C284.9 421 298.9 419.4 301.8 421.5C304.7 423.6 290.9 421.6 290.7 424.1C290.6 425 290.7 425.7 298.6 425.8C306.7 425.8 328.5 422.3 328.5 422.3L325.4 406.9" fill="#FFBA98"/>
<path d="M432.8 341.6C432.8 341.6 391.9 396.6 382.5 399C373.1 401.5 319.4 404.7 319.4 404.7L314.6 427.9C314.6 427.9 383.3 431.5 398.4 420.4C422.2 402.9 447.1 362.5 447.1 362.5C447.9 349.2 442.8 342.6 432.8 341.6Z" fill="#F7F7F7"/>
<path d="M321.6 629.6L324.2 650C324.2 650 300 657.6 305.8 659C311.6 660.4 351.1 654.7 351.1 654.7C351.1 654.7 348.4 629.7 348.7 629.7C349 629.6 321.6 629.6 321.6 629.6ZM487.6 444.4C487.6 444.4 510.4 493.1 465.4 509.9L441.4 457.8L487.6 444.4Z" fill="#0E538C"/>
<path d="M456.3 457.4C456.3 457.4 326.5 421.7 311.9 451.7C297.3 481.6 314.7 637.5 314.7 637.5L355.3 633.2C355.3 633.2 348.5 496.3 355.3 491.5C362.1 486.7 455.6 510.3 465.4 509.9C489.3 508.9 506.2 464.3 456.3 457.4Z" fill="#0E538C"/>
<path d="M459.1 326.9C442.1 327.3 428.2 340.8 427.4 357.8C426.7 372 428.1 391.4 424.3 408.5C422.3 417.3 410.8 452.7 410.8 452.7L422.3 454.6C440.1 457.6 458.4 456.7 475.8 452L488.9 448.5C488.9 448.5 496.5 409.1 500.7 372.1C504.3 341.2 498.4 329.2 479.6 326.5L459.1 326.9Z" fill="#F7F7F7"/>
<path d="M450.1 329.1C450.7 326.1 449.7 313.5 449.7 313.5C449.7 313.5 438.2 312 437.8 300.6C437.3 289.2 438.6 262.9 438.6 262.9L459.8 253.1L482.5 271L484.6 283.6L479.3 298.6L476.9 327.2L450.1 329.1Z" fill="#B97A59"/>
<path d="M449.7 313.5C449.7 313.5 457.4 313.7 464.9 308.7C464.9 308.7 461.3 317 449.9 316.3L449.7 313.5Z" fill="#A0654B"/>
<path d="M424.6 445.8L419.2 445.5C419.2 445.5 415.9 445.8 410.1 445.1C408.6 444.9 407.1 444.5 405.7 443.9C404 443.1 401.8 442 400.8 441.1C399.5 439.9 397.5 440.7 397.8 442.2C398.1 443.7 401.5 446.9 406.8 448.8C412.1 450.7 403.9 453.2 401 454.1C398.1 455 389.1 458.4 388.8 459.5C388.3 461.1 390.1 462 393 461C396 460 404.9 457.5 405.5 459C406 460.5 391 465.1 391 465.1C391 465.1 387.6 465.6 388.2 467.4C389.3 470.6 404.8 464.5 406.3 463.9C407.3 463.5 408 465.1 406.9 465.5C405.7 465.9 391.7 469.8 392.8 473C393.6 475.5 405.7 468.1 409.2 468.9C412.7 469.6 399.4 473.6 400.2 475.9C400.5 476.8 400.9 477.4 408.1 474.1C415.5 470.7 433.7 458.4 433.7 458.4L424.4 445.7" fill="#B97A59"/>
<path d="M440.9 456.3C440.9 456.3 466.4 449 482.6 433.9C495.5 421.9 495.3 410.7 495.3 410.7L501.4 363.9L440.9 456.3Z" fill="#D3D3D3"/>
<path d="M476.4 330.5C476.4 330.5 471.5 398.9 464.9 406C458.3 413.1 414.8 444.7 414.8 444.7L423.3 466.9C423.3 466.9 483.1 432.9 489.9 415.4C498 394.2 499.5 361.2 499.7 347.1C499.8 341.1 497.4 335.3 492.7 331.6C487.8 327.7 482.3 327.5 476.4 330.5Z" fill="#F7F7F7"/>
<path d="M509.6 514.9C509.4 515.7 497.6 513.8 482.8 512.6C468.1 511.4 456 511.3 456 510.5C456 509.8 468.1 508.7 483 509.9C498 511.2 509.8 514.2 509.6 514.9ZM505.1 394.7C505 394.8 504.5 394.7 504.3 393.9C504.1 393.2 504.5 392 505.5 391.3C506 390.9 506.8 390.6 507.7 390.7C508.2 390.8 508.6 390.9 509 391.1C509.4 391.3 509.7 391.6 510 391.9C511.2 393.3 511.5 395.2 510.8 397.1C510.1 398.9 508.7 400.2 507 400.6C506.6 400.7 506.1 400.7 505.7 400.7C505.3 400.7 504.8 400.5 504.5 400.3C503.8 399.9 503.3 399.3 503.1 398.7C502.6 397.6 502.7 396.4 503.2 395.8C503.6 395.2 504.1 395.2 504.2 395.3C504.3 395.4 504.2 395.8 504.2 396.2C504.2 396.6 504.3 397.2 504.8 397.7C505 398 505.3 398.2 505.6 398.3C505.8 398.3 505.9 398.4 506 398.3C506.2 398.3 506.4 398.3 506.5 398.2C507.2 398 508.1 397.2 508.4 396.2C508.7 395.3 508.6 394.1 508.2 393.5C507.7 392.8 507.3 392.7 506.6 392.9C506 393.1 505.6 393.6 505.4 393.9C505.2 394.2 505.3 394.6 505.1 394.7Z" fill="#EAA43F"/>
<path d="M474 352.1C474.2 352.1 474.3 353.7 474.3 356.5C474.3 359.3 474.2 363.5 473.9 368.5C473.5 373.6 472.9 379.7 471.4 386.3C469.9 392.9 467.3 400.1 463 406.8C458.6 413.4 453 418.6 447.7 422.8C442.4 427 437.3 430.3 433.1 433.2C424.7 438.9 419.9 442.9 419.7 442.6C419.6 442.5 420.7 441.3 422.8 439.4C424.9 437.5 428.1 434.9 432.2 431.8C436.3 428.7 441.2 425.3 446.4 421.1C451.5 416.9 456.9 411.8 461 405.5C465.1 399.1 467.7 392.2 469.2 385.8C470.8 379.4 471.6 373.4 472.2 368.4C473.3 358.4 473.7 352.1 474 352.1ZM460.2 330.8L461.1 320.6L477.7 317.6L482.7 328.4L460.2 330.8ZM449.7 319.4L456.3 320.6V330.8L448 329.1L450 317.6M429.8 367C429.8 377.7 428.5 388.3 425.9 398.7Z" fill="#D3D3D3"/>
<path d="M174 438.9H592.1V452.6H174V438.9ZM206.7 452.6L174 658.2L190.3 658.5L246.5 452.6H206.7Z" fill="#254368"/>
<path d="M561.7 450.3L580.7 662.5H565.4L524.3 459.1L522.2 444L561.7 450.3Z" fill="#254368"/>
<path opacity="0.3" d="M523.4 452.6L524.9 462L562.6 460.6L561.9 452.6H523.4ZM206.7 452.6L205.2 462.3L244.1 461.2L246.5 452.6H206.7Z" fill="#000C38"/>
<path d="M236.6 362.8L262.7 438.9H380.6L379.7 435L332 433.5L310.1 362.8H236.6Z" fill="#D3D3D3"/>
<path d="M288.9 399.6C289.7 402.7 288.3 405.8 285.9 406.4C283.5 407 280.9 405 280.1 401.9C279.3 398.8 280.7 395.7 283.1 395.1C285.5 394.5 288.1 396.5 288.9 399.6Z" fill="#F7F7F7"/>
<path d="M525.1 415.2C521.6 403.3 520 386.6 519.1 374.3C518.9 371.9 518.8 369.3 519.7 367.1C520.6 364.8 522.7 362.8 525.1 362.9C527.1 362.9 529 364.4 530 366.1C531 367.9 531.4 369.9 531.8 371.9C534 383.4 536.3 394.8 538.5 406.3C540.6 402.2 543.5 398.5 546.8 395.4C548.3 394 550.5 392.6 552.3 393.6C553.9 394.5 554.1 396.7 554 398.6C553.8 404.2 553.1 409.8 551.9 415.3" fill="#2A94F4"/>
<path d="M520.3 414C520.3 414 514.4 437.3 538.2 438.4C560.1 439.4 554.9 414 554.9 414H520.3Z" fill="#0E538C"/>
<path d="M464.9 273.5C464.9 273.5 465.1 273.6 465.4 273.8C465.7 274 466.2 274.3 466.8 274.8C467.9 275.7 469.3 277.5 469.7 280.1C469.9 281.4 469.9 282.9 469.4 284.3C468.9 285.8 468.1 287.2 466.7 288.4C466.1 289 465.3 289.5 464.5 289.9C463.7 290.3 462.8 290.6 461.8 290.7C459.9 291 457.9 290.6 456.1 289.7C454.3 288.7 452.9 287.2 452.1 285.5C451.7 284.6 451.4 283.7 451.3 282.8C451.2 281.9 451.2 281 451.3 280.1C451.5 278.4 452.3 276.8 453.3 275.6C454.3 274.4 455.5 273.6 456.7 273C459.1 271.9 461.4 272.2 462.7 272.6C463.4 272.8 463.9 273 464.2 273.2C464.7 273.4 464.9 273.5 464.9 273.5C464.9 273.6 464.2 273.1 462.8 272.8C461.4 272.5 459.3 272.3 457 273.4C455.9 273.9 454.7 274.7 453.8 275.9C452.9 277.1 452.2 278.5 452 280.1C451.9 280.9 451.9 281.8 452 282.6C452.1 283.5 452.4 284.3 452.8 285.1C453.5 286.7 454.9 288.1 456.5 289.1C458.2 290 460.1 290.3 461.9 290.1C462.8 290 463.6 289.7 464.4 289.4C465.2 289 465.9 288.6 466.5 288C467.8 286.9 468.6 285.5 469.1 284.1C469.6 282.7 469.6 281.3 469.4 280.1C469 277.6 467.7 275.8 466.7 274.9C465.6 273.9 464.9 273.6 464.9 273.5ZM439.4 271.7H440C440.4 271.7 440.9 271.8 441.6 272C443 272.4 445 273.3 446.6 275.4C447.4 276.5 448 277.8 448.2 279.3C448.4 280.8 448.3 282.5 447.7 284.2C447.4 285 446.9 285.8 446.4 286.5C445.8 287.2 445.2 287.9 444.4 288.4C442.8 289.5 440.9 290.1 438.8 290C436.8 289.9 434.9 289.2 433.4 288C432.6 287.4 432 286.7 431.5 286C431 285.2 430.6 284.4 430.3 283.6C429.7 281.9 429.8 280.2 430.1 278.7C430.4 277.2 431.2 275.9 432 274.9C433.7 272.9 435.8 272.1 437.2 271.8C437.9 271.7 438.5 271.6 438.9 271.7C439.2 271.6 439.4 271.7 439.4 271.7C439.4 271.8 438.6 271.7 437.2 272C435.8 272.3 433.8 273.2 432.2 275.1C431.4 276.1 430.7 277.3 430.4 278.8C430.1 280.2 430.1 281.9 430.6 283.4C430.8 284.2 431.2 285 431.7 285.7C432.2 286.4 432.8 287.1 433.5 287.6C434.9 288.7 436.7 289.4 438.6 289.5C440.5 289.5 442.4 289 443.8 288C444.5 287.5 445.2 286.9 445.7 286.2C446.2 285.5 446.7 284.8 447 284C447.6 282.5 447.8 280.9 447.6 279.4C447.4 277.9 446.8 276.7 446.1 275.6C444.6 273.5 442.7 272.5 441.4 272.1C440.2 271.7 439.4 271.7 439.4 271.7Z" fill="#0B4870"/>
<path d="M447.9 281.7C447.9 281.6 448.8 281.5 449.9 281.5C451 281.5 451.8 281.7 451.8 281.8C451.8 281.9 450.9 282 449.8 282C448.7 282 447.8 281.9 447.9 281.7ZM469.2 282.5C469.2 282.4 471.3 282.3 473.9 282.4C476.5 282.5 478.6 282.7 478.6 282.8C478.6 282.9 476.5 283 473.9 282.9C471.3 282.8 469.2 282.6 469.2 282.5Z" fill="#0B4870"/>
<path d="M478.5 300.5C484.6 293.8 485.2 284.1 485.3 275C485.4 270.6 485.1 266.1 482.9 262.3C480.7 258.6 476.9 256.2 473 254.5C467 251.9 460.2 250.7 453.8 251.9C447.4 253.1 441.3 256.9 438.1 262.6C438.1 262.6 467.8 262 469.8 263.2C471.8 264.4 477.9 268.7 477.4 274C476.9 279.3 475.4 287.1 475.4 287.1L480.2 286.4C480.2 286.4 479.8 279.2 481.9 279.4C483.9 279.8 478.5 300.5 478.5 300.5Z" fill="#0E538C"/>
<path d="M479.9 288.2C480.1 289 481 289.6 481.9 289.5C482.8 289.5 483.6 289 484.3 288.5C485.7 287.4 486.9 285.8 487.1 284C487.3 282.2 486.5 280.2 485 279.3C483.4 278.4 481.1 278.8 480.2 280.4L479.9 288.2Z" fill="#B97A59"/>
</svg>
