<svg width="2667" height="1040" viewBox="0 0 2667 1040" fill="none" xmlns="http://www.w3.org/2000/svg">
<path d="M1235.77 535.62C1235.77 535.62 1240.24 613.98 1185.1 613.16L1181.68 641.44L1111.2 632.9L1127.89 495.06L1232.63 487.78L1235.77 535.62Z" fill="#FFCEC8"/>
<path d="M1103.12 550.86C1102.72 554.372 1103.36 557.926 1104.98 561.072C1106.59 564.218 1109.1 566.815 1112.19 568.535C1115.28 570.255 1118.81 571.022 1122.33 570.738C1125.85 570.453 1129.22 569.131 1131.99 566.938C1134.76 564.745 1136.82 561.78 1137.91 558.416C1139 555.052 1139.07 551.441 1138.11 548.039C1137.15 544.636 1135.2 541.595 1132.51 539.3C1129.82 537.004 1126.51 535.556 1123 535.14C1118.28 534.593 1113.54 535.942 1109.81 538.889C1106.08 541.836 1103.68 546.141 1103.12 550.86Z" fill="#FFCEC8"/>
<path d="M1185.1 613.16C1185.1 613.16 1160.32 609.94 1144.44 593.16C1144.44 593.16 1149.17 615.46 1183.76 624.23L1185.1 613.16Z" fill="#FFB1A8"/>
<path d="M1209.11 496.8C1209.11 496.8 1185.75 545.67 1125.11 535.88C1125.11 535.88 1114.85 531.48 1107.77 543.36C1107.77 543.36 1056.54 507.87 1080.91 436.02C1080.91 436.02 1180.91 335.92 1247.4 429.9C1248.48 431.069 1249.48 432.305 1250.4 433.6C1262.98 450.7 1263.93 473.76 1253.58 492.3L1251.46 496.1C1251.46 496.1 1273.71 533.16 1236.46 542.8C1236.47 542.8 1212.33 524.48 1209.11 496.8Z" fill="#FF7867"/>
<path d="M1080.89 436C1080.89 436 1042.75 455.54 1018.18 426C1013.79 420.72 1012.18 407.95 1015.36 401.83C1017.52 397.6 1022.03 393.74 1031.06 392.61C1031.06 392.61 1016.6 386.94 1018.34 361.12C1020.24 332.92 1040.11 309.35 1066.89 300.33C1090.89 292.23 1122.89 290.85 1151.14 320.72C1151.14 320.72 1178.37 352.27 1153.52 393.01C1153.52 393 1108.54 411.62 1080.89 436Z" fill="#FF7867"/>
<path d="M1151.08 394.69C1165.64 386.93 1181.34 384.45 1196.82 385.76C1212.3 387.07 1227.46 392.24 1242.99 397.76C1230.12 386.842 1214.23 380.1 1197.43 378.43C1188.91 377.701 1180.33 378.666 1172.18 381.27C1164.11 383.94 1156.53 388.41 1151.08 394.69Z" fill="#FF7867"/>
<path d="M1154.77 393.42C1163.22 387.534 1170.29 379.884 1175.5 371C1180.5 362.07 1183.82 351.14 1181.29 340.86C1178.15 350.088 1174.09 358.973 1169.16 367.38C1164.5 375.73 1158.83 383.81 1154.77 393.42ZM1192.25 535.21C1191.14 536.58 1186.46 534.71 1181.33 535.28C1176.18 535.54 1171.86 538.13 1170.54 536.95C1169.07 535.95 1172.85 529.44 1180.81 528.78C1188.77 528.12 1193.54 534 1192.25 535.21ZM1225.15 540.85C1223.7 541.85 1219.7 538.85 1214.61 537.98C1209.61 536.85 1204.72 538.18 1203.77 536.69C1202.63 535.3 1208.01 530.08 1215.85 531.59C1223.69 533.1 1226.72 540 1225.15 540.85Z" fill="#FF7867"/>
<path d="M1215.68 552.14C1215.44 555.7 1213.42 558.47 1211.17 558.31C1208.92 558.15 1207.28 555.15 1207.53 551.59C1207.78 548.03 1209.79 545.26 1212.04 545.42C1214.29 545.58 1215.93 548.58 1215.68 552.14ZM1185.19 550.07C1184.95 553.63 1182.92 556.39 1180.67 556.24C1178.42 556.09 1176.79 553.08 1177.03 549.51C1177.27 545.94 1179.29 543.19 1181.55 543.35C1183.81 543.51 1185.43 546.51 1185.19 550.07Z" fill="#454545"/>
<path d="M1195.74 582.67C1195.42 582.643 1195.13 582.505 1194.9 582.28C1194.68 582.055 1194.54 581.758 1194.51 581.442C1194.48 581.125 1194.57 580.809 1194.75 580.549C1194.93 580.289 1195.2 580.101 1195.51 580.02C1198.82 579.21 1203.85 577.17 1204.15 575.36C1204.26 574.7 1203.47 573.78 1202 572.85C1192.25 566.7 1195.31 549.75 1195.44 549.03C1195.52 548.693 1195.73 548.4 1196.02 548.212C1196.31 548.023 1196.66 547.954 1197 548.018C1197.34 548.083 1197.65 548.275 1197.85 548.557C1198.05 548.838 1198.14 549.187 1198.09 549.53C1198.09 549.69 1195.24 565.39 1203.44 570.53C1205.98 572.14 1207.12 573.89 1206.81 575.76C1206.12 579.97 1197.81 582.19 1196.15 582.6C1196.02 582.643 1195.88 582.667 1195.74 582.67Z" fill="#FF7867"/>
<path d="M1175.87 588C1175.57 595.61 1180.87 602.08 1187.87 602.56C1194.87 603.04 1200.95 597.33 1201.68 589.75L1175.87 588Z" fill="white"/>
<path d="M1200.88 593.27C1201.26 592.135 1201.51 590.961 1201.63 589.77L1175.87 588C1175.82 589.194 1175.91 590.389 1176.15 591.56L1200.88 593.27Z" fill="white"/>
<path d="M1424.65 700.85L1421.23 726.97L1391.2 719.68L1395.47 693.53L1424.65 700.85Z" fill="#FFCEC8"/>
<path d="M1383.25 632.66C1386.42 631.37 1390.08 633.14 1391.85 636.85L1401.67 651.85L1415.86 602.15C1416.46 599.97 1418.49 598.96 1420.34 600.03C1421.11 600.564 1421.7 601.307 1422.06 602.171C1422.41 603.034 1422.51 603.982 1422.34 604.9L1416.54 640.62L1434.34 602.95C1434.5 602.523 1434.76 602.14 1435.1 601.834C1435.43 601.527 1435.84 601.307 1436.28 601.19C1436.72 601.073 1437.19 601.064 1437.63 601.163C1438.08 601.263 1438.49 601.467 1438.84 601.76C1439.61 602.431 1440.15 603.329 1440.39 604.325C1440.62 605.321 1440.53 606.366 1440.14 607.31L1440.02 607.65C1440.1 607.56 1423.86 645.23 1423.86 645.23L1442 613.85C1442.15 613.556 1442.35 613.294 1442.6 613.08C1442.85 612.866 1443.15 612.705 1443.46 612.605C1443.77 612.505 1444.1 612.469 1444.43 612.499C1444.76 612.529 1445.08 612.625 1445.37 612.78C1446.19 613.282 1446.81 614.064 1447.1 614.983C1447.39 615.902 1447.34 616.895 1446.96 617.78L1432.48 652.36L1451.15 630.91C1452.28 629.67 1453.27 629.34 1454.55 630.58C1454.82 630.84 1455.05 631.144 1455.22 631.48C1455.54 632.159 1455.68 632.903 1455.65 633.651C1455.63 634.398 1455.42 635.128 1455.05 635.78L1424.7 700.88L1395.51 693.56C1395.51 693.56 1394.05 686.38 1392.91 674.24C1391.77 662.1 1383.25 632.66 1383.25 632.66Z" fill="#FFCEC8"/>
<path d="M1191.07 1039.03L1199.94 635.75L1102.73 622.36L1099.22 1039.03H1191.07Z" fill="#FF7867"/>
<path d="M875.87 1022.78L914.16 973.78L869.31 868.87L1006.2 754.12L1018.83 879.04C1018.83 879.04 951.01 925.83 925.56 1039.04H1099.22L1102.73 622.37L1039.09 611C1031.35 609.645 1023.42 609.853 1015.77 611.609C1008.11 613.366 1000.88 616.637 994.51 621.23C951.21 651.77 861.73 727.04 808.87 810.54C802.35 820.83 795.35 844.92 795.35 844.92C790.871 867.891 794.271 891.701 805 912.5L875.87 1022.78Z" fill="#464646"/>
<path d="M1006.2 755.38C1006.02 755.379 1005.85 755.341 1005.69 755.268C1005.53 755.196 1005.39 755.091 1005.27 754.96C1005.16 754.838 1005.08 754.696 1005.02 754.542C1004.97 754.388 1004.95 754.225 1004.96 754.062C1004.97 753.899 1005.01 753.74 1005.08 753.594C1005.16 753.447 1005.26 753.317 1005.38 753.21C1005.62 752.99 1029.38 731.53 1027.07 693.1C1027.05 692.773 1027.16 692.451 1027.38 692.206C1027.6 691.96 1027.9 691.811 1028.23 691.79C1028.39 691.775 1028.56 691.793 1028.71 691.844C1028.87 691.895 1029.01 691.978 1029.14 692.087C1029.26 692.195 1029.36 692.328 1029.43 692.476C1029.5 692.625 1029.54 692.786 1029.54 692.95C1031.92 732.64 1007.27 754.85 1007.02 755.07C1006.79 755.27 1006.5 755.38 1006.2 755.38Z" fill="#333333"/>
<path d="M1140.06 1037.65C1139.93 1037.65 1139.81 1037.62 1139.69 1037.58C1135.16 1035.73 1134.06 1027.17 1136.42 1012.11C1136.42 1011.93 1139.11 996.42 1141.13 991.99C1140.8 991.47 1140.36 990.89 1139.89 990.26C1138.14 987.91 1135.74 984.69 1135.74 981.37C1149.11 916.64 1147.64 854.83 1146.22 795.05C1145.08 747.05 1143.9 697.34 1150.47 646.79C1150.56 646.589 1150.7 646.422 1150.89 646.313C1151.08 646.205 1151.3 646.162 1151.52 646.19C1151.74 646.219 1151.94 646.317 1152.09 646.47C1152.25 646.624 1152.35 646.824 1152.38 647.04C1145.82 697.44 1147.01 747.04 1148.15 795.04C1149.57 854.93 1151.04 916.85 1137.64 981.61C1137.64 984.09 1139.75 986.9 1141.43 989.15C1142.04 989.97 1142.59 990.71 1142.97 991.34C1143.01 991.405 1143.04 991.476 1143.06 991.55C1143.11 991.712 1143.11 991.883 1143.08 992.047C1143.04 992.211 1142.96 992.364 1142.85 992.49C1141.73 995.22 1134.53 1023.22 1138.15 1033.01C1138.31 1033.61 1138.59 1034.18 1138.98 1034.67C1139.37 1035.15 1139.86 1035.55 1140.42 1035.84C1140.65 1035.94 1140.83 1036.13 1140.93 1036.36C1141.03 1036.59 1141.04 1036.85 1140.95 1037.09C1140.87 1037.26 1140.74 1037.4 1140.58 1037.5C1140.43 1037.6 1140.25 1037.65 1140.06 1037.65ZM1146 687.27C1146 688.407 1145.66 689.519 1145.03 690.465C1144.4 691.41 1143.5 692.147 1142.45 692.582C1141.4 693.018 1140.24 693.131 1139.13 692.91C1138.01 692.688 1136.99 692.14 1136.18 691.336C1135.38 690.532 1134.83 689.507 1134.61 688.392C1134.39 687.276 1134.5 686.12 1134.94 685.07C1135.37 684.019 1136.11 683.121 1137.06 682.489C1138 681.857 1139.11 681.52 1140.25 681.52C1141.77 681.52 1143.24 682.126 1144.32 683.204C1145.39 684.283 1146 685.745 1146 687.27Z" fill="white"/>
<path d="M1143.56 809.27C1143.56 810.407 1143.22 811.518 1142.59 812.462C1141.95 813.406 1141.05 814.142 1140 814.575C1138.95 815.009 1137.8 815.121 1136.68 814.898C1135.57 814.675 1134.54 814.127 1133.74 813.322C1132.94 812.518 1132.39 811.493 1132.17 810.378C1131.95 809.263 1132.06 808.107 1132.5 807.057C1132.93 806.007 1133.67 805.11 1134.62 804.478C1135.56 803.847 1136.67 803.51 1137.81 803.51C1138.57 803.51 1139.31 803.659 1140.01 803.949C1140.71 804.238 1141.35 804.663 1141.88 805.198C1142.41 805.733 1142.84 806.368 1143.13 807.067C1143.41 807.765 1143.56 808.514 1143.56 809.27ZM1140.21 938.33C1140.21 939.467 1139.87 940.579 1139.24 941.525C1138.61 942.47 1137.71 943.207 1136.66 943.642C1135.61 944.078 1134.45 944.191 1133.34 943.969C1132.22 943.748 1131.2 943.2 1130.39 942.396C1129.59 941.592 1129.04 940.567 1128.82 939.452C1128.6 938.336 1128.71 937.18 1129.15 936.13C1129.58 935.079 1130.32 934.181 1131.27 933.549C1132.21 932.917 1133.32 932.58 1134.46 932.58C1135.98 932.58 1137.45 933.186 1138.53 934.264C1139.6 935.342 1140.21 936.805 1140.21 938.33Z" fill="white"/>
<path d="M925.55 1039L933.62 1012.14L950.32 1022.54C950.772 1022.81 951.309 1022.9 951.824 1022.79C952.339 1022.68 952.794 1022.38 953.098 1021.96C953.403 1021.53 953.534 1021 953.466 1020.48C953.397 1019.95 953.135 1019.48 952.73 1019.14L935.82 1005.63C935.566 1005.42 935.387 1005.14 935.309 1004.82C935.232 1004.5 935.26 1004.17 935.39 1003.87C935.473 1003.68 935.594 1003.52 935.744 1003.38C935.895 1003.24 936.073 1003.13 936.267 1003.07C936.46 1003 936.665 1002.98 936.869 1003C937.073 1003.01 937.27 1003.07 937.45 1003.17L955.6 1013.17C956.046 1013.42 956.57 1013.5 957.07 1013.39C957.57 1013.28 958.011 1012.99 958.31 1012.57C958.608 1012.15 958.743 1011.64 958.688 1011.13C958.632 1010.62 958.391 1010.15 958.01 1009.81L940.01 993.26C939.711 992.983 939.525 992.606 939.486 992.201C939.447 991.795 939.559 991.389 939.799 991.061C940.04 990.732 940.393 990.504 940.792 990.419C941.19 990.334 941.606 990.398 941.96 990.6L961.4 1001.93C961.982 1002.26 962.665 1002.36 963.317 1002.22C963.97 1002.07 964.545 1001.69 964.932 1001.14C965.319 1000.6 965.49 999.93 965.412 999.266C965.334 998.602 965.013 997.991 964.51 997.55L947.39 983C947.343 982.956 947.313 982.898 947.304 982.835C947.295 982.772 947.308 982.707 947.341 982.652C947.374 982.597 947.424 982.555 947.484 982.533C947.544 982.511 947.609 982.51 947.67 982.53L966.21 989.25C966.773 989.467 967.399 989.457 967.955 989.224C968.512 988.99 968.957 988.55 969.197 987.997C969.437 987.443 969.454 986.818 969.244 986.252C969.034 985.686 968.613 985.223 968.07 984.96L942.6 971.96C941.795 971.531 940.911 971.27 940.002 971.192C939.093 971.114 938.177 971.222 937.311 971.508C936.444 971.794 935.645 972.252 934.961 972.856C934.276 973.46 933.722 974.196 933.33 975.02L921.08 1000.92L907.79 981.92L887 1008.61L920.33 1039H925.55Z" fill="#FFCEC8"/>
<path d="M1302.14 1039C1287.71 954.16 1254.14 901.5 1254.14 901.5L1269.93 844.88L1323.72 906.09C1341.41 926.24 1367.9 932.57 1391.22 922.23C1413.65 912.29 1429.15 888.7 1431.22 861.41L1436.47 708.21L1383.53 689.69L1356 815.25L1274.08 681C1267.77 670.655 1258.5 662.436 1247.48 657.4L1199.94 635.71L1191.07 1039H1302.14Z" fill="#464646"/>
<path d="M1269.92 846.15C1269.73 846.15 1269.55 846.108 1269.38 846.028C1269.22 845.947 1269.07 845.83 1268.95 845.685C1268.84 845.541 1268.75 845.371 1268.71 845.19C1268.67 845.009 1268.67 844.821 1268.71 844.64C1268.88 843.9 1284.98 769.25 1263.98 678.93C1263.91 678.609 1263.96 678.272 1264.14 677.992C1264.31 677.713 1264.59 677.514 1264.91 677.44C1265.23 677.366 1265.57 677.422 1265.85 677.596C1266.13 677.771 1266.33 678.049 1266.4 678.37C1287.53 769.26 1271.3 844.43 1271.13 845.18C1271.07 845.455 1270.92 845.701 1270.7 845.877C1270.48 846.054 1270.2 846.15 1269.92 846.15ZM1351.25 850.64H1351.08C1350.76 850.584 1350.48 850.406 1350.29 850.144C1350.11 849.882 1350.03 849.558 1350.08 849.24L1354.81 815.09C1354.83 814.927 1354.88 814.769 1354.96 814.626C1355.04 814.483 1355.15 814.358 1355.28 814.259C1355.41 814.16 1355.56 814.089 1355.72 814.049C1355.88 814.01 1356.05 814.003 1356.21 814.03C1356.54 814.077 1356.83 814.251 1357.03 814.513C1357.23 814.775 1357.31 815.104 1357.27 815.43L1352.53 849.58C1352.49 849.885 1352.33 850.163 1352.1 850.359C1351.86 850.555 1351.56 850.655 1351.25 850.64ZM1435.33 744.13C1435.2 744.129 1435.08 744.109 1434.96 744.07L1382.87 728.07C1382.71 728.023 1382.57 727.946 1382.44 727.842C1382.32 727.739 1382.21 727.611 1382.14 727.467C1382.06 727.323 1382.01 727.165 1382 727.002C1381.98 726.839 1382 726.676 1382.05 726.52C1382.15 726.207 1382.37 725.946 1382.66 725.793C1382.95 725.639 1383.29 725.606 1383.6 725.7L1435.69 741.7C1435.85 741.747 1435.99 741.824 1436.12 741.928C1436.25 742.031 1436.35 742.159 1436.43 742.303C1436.5 742.447 1436.55 742.604 1436.57 742.767C1436.58 742.93 1436.57 743.094 1436.52 743.25C1436.44 743.504 1436.28 743.725 1436.07 743.883C1435.85 744.041 1435.6 744.128 1435.33 744.13ZM1424.05 730.57C1422.67 730.57 1421.31 730.159 1420.16 729.39C1419.01 728.621 1418.11 727.528 1417.58 726.249C1417.05 724.97 1416.91 723.562 1417.18 722.204C1417.45 720.847 1418.12 719.599 1419.1 718.62C1420.08 717.641 1421.33 716.975 1422.68 716.705C1424.04 716.434 1425.45 716.573 1426.73 717.103C1428.01 717.633 1429.1 718.53 1429.87 719.681C1430.64 720.832 1431.05 722.186 1431.05 723.57C1431.05 725.427 1430.31 727.207 1429 728.52C1427.69 729.833 1425.91 730.57 1424.05 730.57ZM1424.05 719.07C1423.16 719.072 1422.29 719.338 1421.55 719.835C1420.81 720.332 1420.23 721.037 1419.89 721.861C1419.55 722.685 1419.46 723.592 1419.64 724.466C1419.81 725.34 1420.24 726.143 1420.87 726.773C1421.51 727.402 1422.31 727.831 1423.18 728.004C1424.06 728.177 1424.96 728.087 1425.79 727.746C1426.61 727.404 1427.32 726.826 1427.81 726.085C1428.31 725.343 1428.57 724.472 1428.57 723.58C1428.57 722.383 1428.09 721.236 1427.24 720.39C1426.4 719.545 1425.25 719.07 1424.05 719.07ZM876.65 1004.36C875.266 1004.36 873.912 1003.95 872.761 1003.18C871.61 1002.41 870.713 1001.32 870.183 1000.04C869.653 998.76 869.514 997.352 869.785 995.994C870.055 994.637 870.721 993.389 871.7 992.41C872.679 991.431 873.927 990.765 875.284 990.495C876.642 990.224 878.05 990.363 879.329 990.893C880.608 991.423 881.701 992.32 882.47 993.471C883.239 994.622 883.65 995.976 883.65 997.36C883.65 999.217 882.913 1001 881.6 1002.31C880.287 1003.62 878.507 1004.36 876.65 1004.36ZM876.65 992.86C875.758 992.86 874.886 993.125 874.144 993.62C873.403 994.116 872.825 994.82 872.483 995.644C872.142 996.468 872.053 997.375 872.227 998.25C872.401 999.125 872.83 999.928 873.461 1000.56C874.092 1001.19 874.895 1001.62 875.77 1001.79C876.645 1001.97 877.552 1001.88 878.376 1001.54C879.2 1001.2 879.904 1000.62 880.4 999.876C880.895 999.134 881.16 998.262 881.16 997.37C881.16 996.174 880.685 995.027 879.839 994.181C878.993 993.335 877.846 992.86 876.65 992.86ZM863.55 989.21C863.253 989.211 862.965 989.105 862.74 988.91C862.491 988.695 862.337 988.391 862.311 988.064C862.285 987.736 862.389 987.412 862.6 987.16L900.31 943.27C900.525 943.019 900.83 942.864 901.16 942.839C901.489 942.814 901.814 942.92 902.065 943.135C902.316 943.35 902.471 943.655 902.496 943.985C902.521 944.314 902.415 944.639 902.2 944.89L864.49 988.78C864.373 988.914 864.228 989.022 864.066 989.096C863.904 989.17 863.728 989.209 863.55 989.21Z" fill="#333333"/>
<path d="M1127.45 664.44C1127.26 664.441 1127.08 664.385 1126.92 664.28L1098.85 645.77C1098.71 645.605 1098.62 645.398 1098.6 645.18C1098.59 644.961 1098.65 644.744 1098.77 644.562C1098.89 644.379 1099.06 644.241 1099.27 644.168C1099.48 644.096 1099.7 644.093 1099.91 644.16L1127.41 662.3L1150.26 645.13C1150.36 645.052 1150.47 644.995 1150.6 644.963C1150.72 644.93 1150.85 644.923 1150.97 644.94C1151.1 644.958 1151.22 645.001 1151.32 645.066C1151.43 645.131 1151.53 645.218 1151.6 645.32C1151.74 645.527 1151.8 645.779 1151.77 646.027C1151.73 646.275 1151.6 646.501 1151.41 646.66L1128 664.25C1127.84 664.366 1127.65 664.433 1127.45 664.44Z" fill="white"/>
<path d="M1170.32 667.06C1170.18 667.058 1170.05 667.029 1169.93 666.974C1169.8 666.919 1169.69 666.839 1169.6 666.74L1151.6 646.53C1151.44 646.336 1151.36 646.089 1151.38 645.839C1151.39 645.589 1151.5 645.354 1151.68 645.18C1151.87 645.018 1152.12 644.935 1152.37 644.948C1152.63 644.961 1152.86 645.069 1153.04 645.25L1170.6 665L1202.89 653.24C1203.11 653.226 1203.32 653.283 1203.5 653.401C1203.68 653.518 1203.82 653.691 1203.89 653.894C1203.97 654.096 1203.97 654.317 1203.91 654.524C1203.85 654.73 1203.72 654.911 1203.55 655.04L1170.65 667.04C1170.54 667.065 1170.43 667.072 1170.32 667.06Z" fill="white"/>
<path d="M1111.9 623.52L1147.43 640.29L1182.55 633.38L1149.11 617.49L1111.9 623.52Z" fill="#FFCEC8"/>
<path d="M1199.94 635.75L1184.14 621.14L1182.55 633.38L1193.28 637.9L1199.94 635.75ZM1113.83 610.58L1112.32 624.5L1102.73 622.36L1113.83 610.58Z" fill="#FF7867"/>
<path d="M422.52 1039L422.14 1038.45L436.64 932.69C374.88 955.15 306.56 1033.77 306.56 1033.77C305.13 1035.52 303.83 1037.26 302.46 1039H422.52Z" fill="#333333"/>
<path d="M499.83 623.39L501.97 628.28L511.51 650.07L575.64 663.21L611.63 613.12L604.05 595.26L602.31 591.11L499.83 623.39Z" fill="#FFD3CF"/>
<path d="M941.08 159.22C941.08 159.22 900.37 104 839.08 134.42C839.07 134.42 884.46 199.46 941.08 159.22Z" fill="#545ED7"/>
<path d="M923.86 131.3L912.13 164.06L866.45 148.84L879.53 116.2L923.86 131.3Z" fill="#FFCEC8"/>
<path d="M420.67 1039H696.93C757.59 764.75 618.67 605.37 618.67 605.37L604.87 597.3L611.65 613.09L575.65 663.16L511.54 650.06L499.85 623.38L485.31 637L429.16 895.31C429.16 895.31 445.07 941.16 420.73 975.79C396.39 1010.42 403 1031.92 403 1031.92L420.67 1039ZM48.25 422.67C48.25 422.67 89.43 372.13 142.78 396.46L99.73 443.26L48.25 422.67Z" fill="#545ED7"/>
<path d="M65.64 406.45L77.38 439.21L123.05 423.99L109.97 391.35L65.64 406.45Z" fill="#FFCEC8"/>
<path d="M114.52 311.07C111.939 310.57 109.263 310.998 106.967 312.279C104.67 313.559 102.901 315.611 101.97 318.07L90.08 339.23L55.64 278.41C55.2841 277.768 54.7987 277.207 54.2147 276.763C53.6306 276.318 52.9606 276 52.247 275.828C51.5335 275.656 50.792 275.634 50.0695 275.763C49.347 275.893 48.6593 276.171 48.05 276.58C47.0274 277.3 46.281 278.348 45.9338 279.549C45.5865 280.751 45.6593 282.035 46.14 283.19L64 327.81L26.72 283.1C26.2802 282.566 25.7383 282.125 25.1261 281.803C24.5139 281.482 23.8436 281.285 23.1544 281.226C22.4653 281.166 21.7712 281.244 21.1128 281.456C20.4544 281.668 19.8449 282.01 19.32 282.46C18.2877 283.366 17.6396 284.632 17.5077 285.999C17.3758 287.367 17.77 288.733 18.61 289.82L18.9 290.23C18.74 290.13 53.51 335.14 53.51 335.14L17.24 298.51C16.5229 297.785 15.583 297.322 14.5711 297.195C13.5592 297.068 12.534 297.284 11.66 297.81C11.1094 298.137 10.6342 298.577 10.2654 299.101C9.89659 299.625 9.64251 300.22 9.5198 300.849C9.39708 301.478 9.40849 302.125 9.55328 302.749C9.69806 303.373 9.97296 303.96 10.36 304.47L41.61 345.89L6.91999 322.1C4.82999 320.74 3.17999 320.51 1.45999 322.35C1.09879 322.717 0.813371 323.152 0.619991 323.63C0.293716 324.574 0.244636 325.592 0.478557 326.563C0.712478 327.534 1.21961 328.418 1.93999 329.11L65.64 406.45L110 391.35C110.311 382.936 110.118 374.511 109.42 366.12C108.24 350.37 114.52 311.07 114.52 311.07Z" fill="#FFCEC8"/>
<path d="M684.65 1032.86C684.35 1034.91 684.04 1036.97 683.72 1039.03H775.63C803.2 815.4 760.46 683.31 760.46 683.31L941.08 159.22C937.325 160.698 933.413 161.738 929.42 162.32C914.74 164.44 900.42 157.99 890.18 147.32C868.54 124.75 839.07 134.45 839.07 134.45L631.31 601.89L618.67 605.4C736.59 797 684.65 1032.86 684.65 1032.86ZM177.84 678.59L407.63 788.59C390 841.64 299.52 955 228.4 1039H321.87C333.398 1026.38 346.017 1014.8 359.58 1004.39C404.75 969.76 432.9 934.56 432.9 934.56C519 818.54 485.31 637 485.31 637L411.37 656.66L221.37 574.3L142.78 396.46C142.78 396.46 125.93 389.91 103.47 414.24C81.01 438.57 48.25 422.67 48.25 422.67L129.71 627.11C138.718 649.706 155.9 668.084 177.84 678.59Z" fill="#464646"/>
<path d="M606.5 686.16C606.297 686.16 606.101 686.093 605.94 685.97L575.06 663.97C574.919 663.914 574.793 663.826 574.691 663.714C574.589 663.602 574.514 663.468 574.472 663.322C574.429 663.177 574.42 663.024 574.445 662.874C574.471 662.725 574.53 662.583 574.618 662.46C574.706 662.336 574.821 662.235 574.954 662.163C575.088 662.09 575.236 662.049 575.387 662.042C575.538 662.036 575.689 662.064 575.829 662.124C575.968 662.184 576.091 662.275 576.19 662.39L606.31 683.84L644.58 634.51C644.741 634.312 644.971 634.183 645.224 634.15C645.477 634.117 645.733 634.181 645.94 634.33C646.139 634.493 646.268 634.726 646.299 634.981C646.331 635.236 646.263 635.494 646.11 635.7L607.27 685.77C607.179 685.888 607.062 685.985 606.929 686.052C606.796 686.12 606.649 686.157 606.5 686.16Z" fill="white"/>
<path d="M563.92 697.85C563.815 697.847 563.711 697.83 563.61 697.8L490.15 673C489.962 672.88 489.819 672.7 489.744 672.489C489.67 672.279 489.668 672.049 489.74 671.837C489.811 671.626 489.951 671.444 490.138 671.321C490.325 671.198 490.547 671.142 490.77 671.16L563.32 695.65L574.7 662.87C574.79 662.63 574.969 662.434 575.2 662.322C575.431 662.211 575.696 662.192 575.94 662.27C576.18 662.36 576.376 662.539 576.488 662.77C576.599 663.001 576.618 663.266 576.54 663.51L564.84 697.2C564.77 697.388 564.644 697.551 564.48 697.667C564.316 697.783 564.121 697.847 563.92 697.85Z" fill="white"/>
<path d="M563.79 1026.94C563.613 1026.94 563.441 1026.89 563.29 1026.8C563.139 1026.7 563.015 1026.57 562.93 1026.42C562.817 1026.19 562.796 1025.93 562.87 1025.69C562.945 1025.44 563.109 1025.24 563.33 1025.11C567.6 1022.81 570.46 1010.78 573.22 999.11C576.22 986.62 579.02 974.69 583.99 970.88C582.59 970.42 582.26 969.88 582.18 969.37C582.146 969.09 582.208 968.806 582.355 968.565C582.502 968.324 582.725 968.139 582.99 968.04C583.442 967.865 583.928 967.8 584.41 967.85C583.54 966.56 582.65 965.17 581.74 963.74C579.45 960.14 577.08 956.41 574.74 954.09C574.561 953.905 574.461 953.658 574.46 953.4C574.461 953.143 574.561 952.895 574.74 952.71C587.18 940.28 591.43 923.29 595.54 906.86C600.21 813.1 593.54 735.68 574.67 663.4C574.614 663.151 574.656 662.89 574.786 662.671C574.916 662.452 575.125 662.29 575.37 662.22C575.618 662.164 575.877 662.204 576.096 662.332C576.315 662.46 576.478 662.667 576.55 662.91C595.55 735.39 602.16 813 597.45 907.14C593.32 923.72 589.09 940.67 576.78 953.41C579.22 956.323 581.424 959.426 583.37 962.69C584.878 965.18 586.524 967.584 588.3 969.89L588.37 969.97C588.489 970.121 588.561 970.304 588.579 970.495C588.597 970.687 588.559 970.88 588.47 971.05V971.1C588.385 971.205 588.284 971.297 588.17 971.37L587.97 971.44C587.876 971.471 587.774 971.471 587.68 971.44H587.6C581.85 971.44 578.32 986.31 575.2 999.44C572.2 1012.06 569.38 1023.97 564.34 1026.68C564.188 1026.82 563.996 1026.91 563.79 1026.94Z" fill="white"/>
<path d="M569.07 721.68C569.07 722.699 569.372 723.694 569.938 724.541C570.504 725.388 571.308 726.048 572.249 726.438C573.19 726.828 574.226 726.93 575.225 726.731C576.224 726.532 577.141 726.042 577.862 725.322C578.582 724.601 579.072 723.684 579.271 722.685C579.47 721.686 579.368 720.65 578.978 719.709C578.588 718.768 577.928 717.964 577.081 717.398C576.234 716.832 575.239 716.53 574.22 716.53C572.854 716.53 571.544 717.073 570.578 718.038C569.613 719.004 569.07 720.314 569.07 721.68Z" fill="white"/>
<path d="M576.56 817.61C579.404 817.61 581.71 815.304 581.71 812.46C581.71 809.616 579.404 807.31 576.56 807.31C573.716 807.31 571.41 809.616 571.41 812.46C571.41 815.304 573.716 817.61 576.56 817.61Z" fill="white"/>
<path d="M573.75 906.52C576.594 906.52 578.9 904.214 578.9 901.37C578.9 898.526 576.594 896.22 573.75 896.22C570.906 896.22 568.6 898.526 568.6 901.37C568.6 904.214 570.906 906.52 573.75 906.52Z" fill="white"/>
<path d="M546.14 1012.27C546.14 1013.29 546.442 1014.28 547.008 1015.13C547.574 1015.98 548.378 1016.64 549.319 1017.03C550.26 1017.42 551.296 1017.52 552.295 1017.32C553.294 1017.12 554.211 1016.63 554.932 1015.91C555.652 1015.19 556.142 1014.27 556.341 1013.27C556.54 1012.28 556.438 1011.24 556.048 1010.3C555.658 1009.36 554.998 1008.55 554.151 1007.99C553.304 1007.42 552.309 1007.12 551.29 1007.12C549.925 1007.12 548.617 1007.67 547.651 1008.63C546.686 1009.6 546.143 1010.9 546.14 1012.27Z" fill="white"/>
<path d="M499.83 623.39L501.97 628.28C509.877 635.978 519.734 641.373 530.48 643.885C541.225 646.397 552.453 645.931 562.953 642.536C573.453 639.142 582.829 632.948 590.07 624.621C597.312 616.294 602.145 606.15 604.05 595.28L602.31 591.13L499.83 623.39Z" fill="#FFB2A9"/>
<path d="M566.45 635.54C573.78 632.403 580.42 627.852 585.992 622.148C591.563 616.444 595.956 609.698 598.92 602.297C601.884 594.895 603.361 586.981 603.267 579.009C603.173 571.036 601.509 563.16 598.37 555.83L573.92 498.72L462.29 546.51L486.74 603.62C493.081 618.42 505.039 630.097 519.987 636.083C534.934 642.068 551.647 641.873 566.45 635.54Z" fill="#FFD3CF"/>
<path d="M590.69 560.35C595.46 569.8 598.81 577.72 608.26 572.95C617.71 568.18 629.69 552.52 624.92 543.07C623.785 540.822 622.219 538.82 620.311 537.178C618.402 535.536 616.189 534.285 613.798 533.498C611.406 532.712 608.883 532.403 606.372 532.591C603.862 532.78 601.413 533.46 599.165 534.595C596.917 535.73 594.915 537.296 593.273 539.204C591.631 541.113 590.38 543.326 589.593 545.717C588.806 548.109 588.498 550.632 588.686 553.143C588.875 555.653 589.555 558.102 590.69 560.35ZM495.57 599.09C498.57 609.24 501.63 617.29 491.48 620.32C481.33 623.35 461.87 620.22 458.84 610.08C457.381 605.209 457.917 599.959 460.33 595.483C462.743 591.008 466.834 587.674 471.705 586.215C476.576 584.756 481.826 585.292 486.302 587.705C490.778 590.118 494.111 594.209 495.57 599.08V599.09Z" fill="#FFD3CF"/>
<path d="M613.35 533.37C613.35 533.37 621 515.65 615.56 496C612.41 484.62 601.42 476.84 589.71 478.26L589.19 478.32C589.19 478.32 588.02 439.72 545.44 429.42C502.86 419.12 487.18 470.37 487.18 470.37C484.712 468.478 481.71 467.414 478.601 467.33C475.493 467.245 472.437 468.145 469.87 469.9C469.87 469.9 461.68 474.11 465.19 484.17C465.19 484.17 445.44 472.63 426.11 498.17C402.25 529.83 460 597.68 460 597.68C460 597.68 462.81 584.11 479.65 585.04L466.79 557.67C466.79 557.67 500.24 563.05 506.56 532.67C506.56 532.67 529.49 550.85 548.67 537.12C569.26 522.38 575.79 549.18 591.9 540.87C591.94 540.83 599.81 529.67 613.35 533.37Z" fill="#464646"/>
<path d="M941.45 1.48004C942.473 2.20042 943.219 3.24783 943.566 4.44949C943.913 5.65115 943.841 6.93526 943.36 8.09002L925.54 52.66L962.78 8.00003C963.22 7.46615 963.762 7.02538 964.374 6.70352C964.986 6.38165 965.656 6.18515 966.346 6.12555C967.035 6.06595 967.729 6.14444 968.387 6.35641C969.046 6.56838 969.655 6.90956 970.18 7.36001C971.212 8.26635 971.86 9.53207 971.992 10.8994C972.124 12.2668 971.73 13.6331 970.89 14.72L970.6 15.14C971.324 14.6529 972.177 14.3928 973.05 14.3928C973.923 14.3928 974.776 14.6529 975.5 15.14C976.314 15.7243 976.918 16.5555 977.223 17.5102C977.527 18.4649 977.516 19.4923 977.19 20.44C967.74 36.52 957.29 54.72 947.89 70.78L982.58 46.98C984.67 45.62 986.32 45.39 988.04 47.23C988.401 47.5975 988.687 48.0324 988.88 48.51C989.206 49.4542 989.255 50.472 989.021 51.4431C988.788 52.4142 988.28 53.298 987.56 53.99L923.86 131.33L879.53 116.23C879.219 107.819 879.412 99.3975 880.11 91.01C881.26 75.25 874.98 35.95 874.98 35.95C877.568 35.4528 880.248 35.888 882.545 37.1785C884.842 38.469 886.608 40.5315 887.53 43L899.42 64.16L933.86 3.34002C934.214 2.69677 934.698 2.13401 935.281 1.68734C935.864 1.24068 936.534 0.919828 937.247 0.745022C937.96 0.570217 938.702 0.545265 939.426 0.67178C940.149 0.798295 940.838 1.07352 941.45 1.48004Z" fill="#FFCEC8"/>
<path d="M936 61.07C935.762 61.0708 935.53 60.9935 935.34 60.85C935.115 60.6744 934.969 60.417 934.934 60.1342C934.898 59.8513 934.976 59.5658 935.15 59.34L969.77 14.4C969.856 14.2884 969.963 14.1948 970.085 14.1246C970.208 14.0544 970.342 14.0089 970.482 13.9908C970.622 13.9727 970.764 13.9823 970.9 14.0191C971.036 14.0558 971.163 14.119 971.275 14.205C971.387 14.291 971.48 14.3982 971.55 14.5204C971.621 14.6426 971.666 14.7774 971.684 14.9171C971.702 15.0569 971.693 15.1988 971.656 15.3349C971.619 15.4709 971.556 15.5984 971.47 15.71L936.85 60.65C936.751 60.7812 936.622 60.8874 936.475 60.9603C936.327 61.0332 936.165 61.0708 936 61.07Z" fill="#FF9C91"/>
<path d="M518.62 582.88C519.69 585.51 522.14 587 524.09 586.21C526.04 585.42 526.76 582.64 525.69 580C524.62 577.36 522.17 575.88 520.21 576.67C518.25 577.46 517.55 580.24 518.62 582.88Z" fill="#464646"/>
<path d="M527.08 593.88L519.74 596.88C516.004 598.39 511.821 598.357 508.11 596.788C504.398 595.219 501.46 592.242 499.94 588.51L495.44 577.44L531 563L535.5 574.07C536.86 577.422 536.98 581.148 535.84 584.581C534.7 588.013 532.374 590.927 529.28 592.8C528.575 593.216 527.84 593.577 527.08 593.88ZM498.36 578.65L502.01 587.65C503.312 590.829 505.819 593.363 508.984 594.699C512.149 596.035 515.714 596.064 518.9 594.78L526.24 591.78C529.419 590.478 531.953 587.971 533.289 584.806C534.625 581.641 534.654 578.076 533.37 574.89L529.72 565.89L498.36 578.65Z" fill="white"/>
<path d="M554.09 568.47C555.16 571.1 557.61 572.6 559.57 571.8C561.53 571 562.23 568.23 561.16 565.6C560.09 562.97 557.64 561.47 555.69 562.26C553.74 563.05 553 565.83 554.09 568.47Z" fill="#464646"/>
<path d="M572 575.66L564.66 578.66C560.924 580.173 556.741 580.141 553.028 578.572C549.316 577.003 546.378 574.024 544.86 570.29L540.36 559.22L575.87 544.8L580.37 555.87C581.734 559.221 581.856 562.949 580.716 566.383C579.576 569.816 577.248 572.73 574.15 574.6C573.461 575.007 572.742 575.361 572 575.66ZM543.28 560.43L546.93 569.43C548.232 572.609 550.739 575.143 553.904 576.479C557.069 577.815 560.634 577.844 563.82 576.56L571.16 573.56C574.339 572.258 576.873 569.751 578.209 566.586C579.545 563.421 579.574 559.856 578.29 556.67L574.64 547.67L543.28 560.43ZM571.41 598.28C573.042 602.845 572.825 607.866 570.804 612.273C568.783 616.679 565.12 620.121 560.596 621.862C556.072 623.604 551.047 623.508 546.593 621.594C542.139 619.68 538.61 616.101 536.76 611.62L571.41 598.28Z" fill="white"/>
<path d="M531.71 560.22L555.75 585.75L543.06 595.21L531.71 560.22Z" fill="#FFCEC8"/>
<path d="M543.64 596.17L543.73 596.11L556.41 586.65C556.538 586.557 556.644 586.437 556.722 586.299C556.799 586.161 556.846 586.008 556.86 585.85C556.875 585.694 556.856 585.536 556.804 585.387C556.752 585.239 556.669 585.103 556.56 584.99L532.56 559.45C532.352 559.255 532.078 559.146 531.793 559.146C531.509 559.146 531.234 559.255 531.027 559.45C530.819 559.645 530.693 559.912 530.675 560.196C530.657 560.48 530.748 560.761 530.93 560.98L554.11 585.61L542.43 594.31C542.183 594.476 542.013 594.733 541.955 595.024C541.898 595.316 541.959 595.618 542.125 595.865C542.291 596.112 542.548 596.282 542.839 596.34C543.131 596.397 543.433 596.336 543.68 596.17H543.64Z" fill="#FF7867"/>
<path d="M504.78 565.77C505.093 566.286 505.588 566.666 506.168 566.834C506.747 567.003 507.369 566.948 507.91 566.68L519.63 560.8C520.424 560.321 520.995 559.546 521.218 558.646C521.441 557.746 521.298 556.795 520.82 556C520.569 555.583 520.233 555.224 519.835 554.944C519.436 554.665 518.984 554.472 518.506 554.378C518.029 554.284 517.537 554.29 517.062 554.397C516.588 554.505 516.141 554.71 515.75 555L505.42 562.62C504.94 562.973 504.609 563.492 504.49 564.077C504.372 564.661 504.475 565.268 504.78 565.78V565.77ZM559.83 544.17C560.004 544.747 559.953 545.369 559.688 545.911C559.423 546.452 558.963 546.873 558.4 547.09L546.17 551.82C545.731 551.952 545.27 551.997 544.813 551.951C544.357 551.905 543.914 551.769 543.51 551.552C543.106 551.335 542.749 551.04 542.459 550.684C542.169 550.329 541.952 549.919 541.82 549.48C541.681 549.013 541.641 548.523 541.702 548.04C541.762 547.557 541.923 547.092 542.173 546.675C542.423 546.257 542.758 545.896 543.155 545.615C543.552 545.333 544.003 545.138 544.48 545.04L557.06 542.51C557.646 542.388 558.256 542.491 558.77 542.798C559.283 543.106 559.662 543.596 559.83 544.17Z" fill="#464646"/>
<path d="M498.45 579.59L575.24 548.41C575.489 548.313 575.717 548.168 575.909 547.982C576.1 547.795 576.253 547.573 576.358 547.327C576.462 547.08 576.516 546.816 576.516 546.549C576.517 546.281 576.464 546.017 576.36 545.77C576.262 545.522 576.116 545.295 575.929 545.104C575.743 544.914 575.52 544.762 575.274 544.659C575.028 544.555 574.764 544.502 574.497 544.502C574.23 544.502 573.966 544.556 573.72 544.66L496.93 575.84C496.681 575.937 496.453 576.083 496.261 576.269C496.07 576.455 495.917 576.677 495.812 576.924C495.708 577.17 495.654 577.434 495.654 577.702C495.653 577.969 495.706 578.234 495.81 578.48C495.908 578.728 496.054 578.955 496.241 579.146C496.427 579.337 496.65 579.488 496.896 579.592C497.142 579.695 497.406 579.748 497.673 579.748C497.94 579.748 498.204 579.694 498.45 579.59Z" fill="#FF9D5A"/>
<path d="M1546.19 531.62C1546.19 531.62 1510.35 628.88 1570.83 651.42L1564.76 722.1L1646.28 727.35L1665 578.22C1665 578.22 1618.24 429.61 1546.19 531.62Z" fill="#FFD3CF"/>
<path d="M1564.76 722.1L1485.85 1020.31C1485.85 1020.31 1517.96 978.18 1598.85 1008.94C1679.74 1039.7 1705.41 976.62 1705.41 976.62L1664.41 885.98L1646.23 727.35L1605.55 717.2L1564.76 722.1Z" fill="#545ED3"/>
<path d="M1606.41 716.34L1618.62 753.72L1646.87 744.79L1646.28 727.35L1649.56 693.52L1606.41 716.34ZM1567.79 687.06L1606.41 716.34L1585.26 754.35L1557.7 743.48L1564.76 722.1L1567.79 687.06Z" fill="#545ED3"/>
<path d="M1762 1039C1742.89 1017 1714.71 985.43 1705.42 976.59C1705.42 976.59 1669.42 1033.97 1580.06 1001.38C1571.93 998.272 1563.44 996.216 1554.79 995.26C1536.17 993.5 1507.1 995.68 1485.79 1020.26C1485.79 1020.26 1484.73 1026.74 1483.7 1038.98L1762 1039ZM1380.26 260.29C1380.26 260.29 1420.86 220.02 1454.09 244.85L1411.15 283.93C1411.15 283.93 1387.4 295.34 1380.26 260.29ZM1998.72 535.61C1998.72 535.61 2003.04 525.61 1987.4 503.7C1975.03 484.28 1961.84 478.02 1940.46 481.55L1949.7 534.89C1949.7 534.89 1966.4 563 1998.72 535.61Z" fill="#FF7867"/>
<path d="M1401.8 252.21L1406.51 278.14L1436.15 269.37L1430.59 243.45L1401.8 252.21ZM1439.78 182.06C1436.55 180.92 1432.98 182.87 1431.4 186.67L1422.33 202.17L1405.7 153.23C1404.99 151.08 1402.91 150.17 1401.12 151.33C1400.39 151.912 1399.83 152.693 1399.53 153.579C1399.23 154.466 1399.19 155.42 1399.41 156.33L1406.97 191.71L1387.33 154.97C1387.15 154.547 1386.88 154.173 1386.53 153.88C1386.17 153.586 1385.76 153.382 1385.31 153.284C1384.86 153.185 1384.4 153.197 1383.96 153.316C1383.51 153.436 1383.11 153.66 1382.77 153.97C1382.04 154.683 1381.55 155.608 1381.37 156.614C1381.19 157.621 1381.33 158.658 1381.77 159.58L1381.91 159.91C1381.82 159.82 1399.91 196.64 1399.91 196.64L1380.23 166.17C1380.07 165.883 1379.85 165.632 1379.59 165.431C1379.33 165.23 1379.03 165.083 1378.71 164.999C1378.39 164.915 1378.06 164.896 1377.73 164.943C1377.41 164.989 1377.09 165.1 1376.81 165.27C1376.03 165.809 1375.47 166.608 1375.22 167.524C1374.98 168.44 1375.06 169.413 1375.47 170.27L1391.65 204.09L1371.94 183.59C1370.74 182.41 1369.74 182.13 1368.52 183.43C1368.26 183.698 1368.05 184.014 1367.9 184.36C1367.62 185.054 1367.5 185.805 1367.57 186.551C1367.64 187.297 1367.88 188.017 1368.28 188.65L1401.82 252.16L1430.61 243.4C1430.61 243.4 1431.71 236.17 1432.24 223.98C1432.77 211.79 1439.78 182.06 1439.78 182.06ZM1980.82 519.94L1963.42 539.74L1942.54 516.95L1960.66 497.6L1980.82 519.94Z" fill="#FFCEC8"/>
<path d="M1984.41 440.25C1987.76 440.94 1989.82 444.45 1989.22 448.52L1989.01 466.52L2028.48 433.14C2030.19 431.66 2032.48 431.96 2033.38 433.88C2033.71 434.75 2033.78 435.695 2033.58 436.604C2033.39 437.513 2032.94 438.347 2032.29 439.01L2007.57 465.44L2043.33 444C2043.7 443.734 2044.13 443.561 2044.58 443.495C2045.03 443.429 2045.5 443.472 2045.93 443.621C2046.36 443.77 2046.75 444.02 2047.06 444.35C2047.38 444.681 2047.61 445.082 2047.74 445.52C2048 446.508 2047.95 447.553 2047.59 448.51C2047.24 449.467 2046.59 450.289 2045.74 450.86L2045.44 451.07C2045.56 451.07 2011.09 473.28 2011.09 473.28L2043.66 457.28C2043.95 457.118 2044.26 457.015 2044.59 456.977C2044.92 456.94 2045.25 456.969 2045.57 457.062C2045.88 457.155 2046.18 457.311 2046.43 457.52C2046.69 457.73 2046.9 457.988 2047.05 458.28C2047.44 459.149 2047.52 460.131 2047.25 461.048C2046.98 461.965 2046.4 462.757 2045.6 463.28L2014.3 484L2041.76 476.58C2043.39 476.18 2044.4 476.46 2044.76 478.2C2044.85 478.567 2044.86 478.947 2044.81 479.32C2044.7 480.061 2044.41 480.763 2043.96 481.369C2043.52 481.974 2042.94 482.465 2042.27 482.8L1980.81 519.95L1960.65 497.61C1960.65 497.61 1963.43 490.84 1969.25 480.13C1975.07 469.42 1984.41 440.25 1984.41 440.25Z" fill="#FFCEC8"/>
<path d="M1546.19 531.62C1546.19 531.62 1533.36 511.94 1545.91 488.05C1545.91 488.05 1565.42 445.48 1626.11 462.05C1686.8 478.62 1672.32 532.15 1672.32 532.15C1672.32 532.15 1691.2 507.58 1727.57 524.15C1763.94 540.72 1756.87 588.25 1756.87 588.25C1756.87 588.25 1747.63 620.37 1805.23 622.38C1805.23 622.38 1836.86 619.88 1845.91 644.53C1845.91 644.53 1869.08 677.78 1835.36 714.44C1812.07 739.77 1837.56 759.07 1855.56 768.58C1868.38 775.35 1877.37 788.09 1878.23 802.58C1879.09 817.07 1873.58 832.49 1848.23 837.46C1848.23 837.46 1892.42 896.06 1845.74 950.46C1812.07 989.66 1771.6 993.27 1771.6 993.27L1665.9 897.82L1649.61 693.6L1661.09 601C1661.09 601 1630.53 590.08 1625.26 553.55C1623.69 542.71 1618.61 532.46 1609.55 526.32C1604.11 522.63 1594.86 520.12 1583.67 520.45C1570.44 520.989 1557.56 524.829 1546.19 531.62Z" fill="#FF9D5A"/>
<path d="M1463.15 776.22C1469.38 804.07 1482.9 829.77 1482.9 829.77C1482.9 829.77 1454.69 951.17 1426.52 1039.03H1499.24C1522.66 944.44 1561.74 776.59 1567.79 687.03L1570.79 651.39C1570.79 651.39 1539.55 642.13 1536 599.21C1535.39 590.415 1536.03 581.579 1537.88 572.96L1546.15 531.59L1454.05 244.82C1454.05 244.82 1435.75 238.24 1407.92 263.19C1400.66 269.7 1389.24 269.79 1382.45 262.8C1381.66 261.992 1380.92 261.144 1380.22 260.26L1492.3 731.55C1492.3 731.55 1456.91 748.36 1463.15 776.22ZM1736.86 814.37L1998.72 535.61C1973.87 521.5 1970.24 507.85 1970.24 507.85C1954.72 464.85 1933.24 485.17 1933.24 485.17L1678.63 721.59L1678.12 721.68L1736.73 814.68L1736.86 814.37Z" fill="#464646"/>
<path d="M1740 1039H1849.47C1778.32 990.29 1691.59 909.12 1691.59 909.12C1686.73 882.26 1735.98 814.69 1739.33 810.12L1713.89 703.18L1649.57 693.48C1633.16 741.87 1635.69 824.26 1654.14 915.01C1662.28 955.13 1707.69 1008.16 1740 1039Z" fill="#464646"/>
<path d="M1584.22 999.91C1583.97 999.892 1583.73 999.779 1583.56 999.594C1583.39 999.408 1583.29 999.164 1583.29 998.91C1583.29 997.52 1584.64 971.59 1585.9 946.51C1587.07 923.18 1588.28 899.04 1588.33 897.73C1588.42 895.14 1595.98 882.16 1598.55 877.82L1583.55 870.51C1583.41 870.446 1583.29 870.35 1583.2 870.23C1583.11 870.11 1583.05 869.969 1583.03 869.82C1583 869.673 1583.01 869.52 1583.05 869.376C1583.09 869.231 1583.17 869.099 1583.27 868.99L1595.45 855.99L1583.38 850.66C1583.19 850.572 1583.04 850.429 1582.94 850.25C1582.83 850.071 1582.79 849.865 1582.81 849.66L1605.5 716.19C1605.54 715.974 1605.65 715.777 1605.82 715.63C1605.98 715.484 1606.19 715.396 1606.41 715.38C1606.63 715.371 1606.85 715.437 1607.03 715.568C1607.22 715.698 1607.35 715.886 1607.41 716.1L1615.41 746.1L1646.11 732.15C1646.23 732.049 1646.37 731.977 1646.52 731.94C1646.67 731.902 1646.83 731.9 1646.98 731.934C1647.13 731.968 1647.27 732.036 1647.39 732.134C1647.51 732.232 1647.61 732.357 1647.67 732.498C1647.74 732.64 1647.77 732.794 1647.76 732.949C1647.75 733.105 1647.71 733.256 1647.64 733.392C1647.56 733.528 1647.46 733.645 1647.33 733.733C1647.2 733.821 1647.05 733.878 1646.9 733.9L1615.17 748.32C1615.05 748.38 1614.91 748.41 1614.77 748.41C1614.63 748.41 1614.49 748.38 1614.37 748.32C1614.24 748.259 1614.13 748.172 1614.04 748.065C1613.95 747.958 1613.89 747.834 1613.85 747.7L1606.65 720.87L1584.83 849.27L1597.45 854.84C1597.58 854.908 1597.7 855.005 1597.79 855.124C1597.88 855.243 1597.95 855.381 1597.98 855.528C1598.01 855.675 1598.01 855.827 1597.97 855.973C1597.93 856.119 1597.87 856.254 1597.77 856.37L1585.56 869.37L1600.33 876.57C1600.45 876.63 1600.55 876.713 1600.64 876.815C1600.73 876.916 1600.79 877.033 1600.83 877.16C1600.87 877.289 1600.87 877.423 1600.86 877.555C1600.84 877.687 1600.8 877.815 1600.73 877.93C1596.42 885.17 1590.31 896.13 1590.25 897.82C1590.25 899.14 1589.04 922.21 1587.82 946.63C1586.56 971.7 1585.26 997.63 1585.21 999C1585.19 999.248 1585.07 999.478 1584.89 999.646C1584.71 999.815 1584.47 999.909 1584.22 999.91Z" fill="white"/>
<path d="M1646.66 614.68C1645.66 626.21 1644.23 635.5 1655.76 636.49C1667.29 637.48 1687.41 629.8 1688.4 618.27C1688.78 612.788 1686.99 607.376 1683.41 603.201C1679.84 599.027 1674.77 596.423 1669.3 595.952C1663.82 595.481 1658.38 597.181 1654.14 600.684C1649.91 604.187 1647.22 609.214 1646.66 614.68Z" fill="#FFD3CF"/>
<path d="M1587.39 744.92C1587.18 744.916 1586.98 744.846 1586.81 744.72L1558.57 723.17C1558.42 723.114 1558.29 723.025 1558.19 722.91C1558.09 722.795 1558.01 722.657 1557.97 722.507C1557.93 722.357 1557.92 722.2 1557.95 722.047C1557.98 721.894 1558.04 721.751 1558.14 721.627C1558.23 721.504 1558.36 721.405 1558.5 721.337C1558.64 721.269 1558.79 721.235 1558.94 721.237C1559.1 721.24 1559.25 721.278 1559.39 721.35C1559.53 721.421 1559.65 721.524 1559.74 721.65L1587.17 742.58L1604.81 716.66C1604.98 716.526 1605.18 716.449 1605.4 716.44C1605.61 716.432 1605.82 716.493 1606 716.614C1606.18 716.735 1606.31 716.91 1606.38 717.113C1606.45 717.315 1606.45 717.535 1606.39 717.74L1588.19 744.5C1588.04 744.716 1587.81 744.863 1587.55 744.91L1587.39 744.92Z" fill="white"/>
<path d="M1570.83 651.42C1570.83 651.42 1604.2 657 1630 639.93C1630 639.93 1623.85 663.14 1569.79 664.93L1570.83 651.42Z" fill="#FFB2A9"/>
<path d="M1600.23 558.68C1600.92 560.3 1605.9 559.78 1610.64 561.68C1615.5 563.33 1618.92 566.98 1620.5 566.22C1622.18 565.63 1620.34 558.41 1612.91 555.62C1605.48 552.83 1599.34 557.14 1600.23 558.68ZM1556.13 558.9C1557.23 560.28 1561.89 558.44 1566.98 559.03C1572.1 559.31 1576.38 561.91 1577.7 560.75C1579.02 559.59 1575.44 553.27 1567.53 552.58C1559.62 551.89 1554.86 557.66 1556.13 558.9Z" fill="#FF9D5A"/>
<path d="M1560.5 582.54C1559.76 586 1560.94 589.19 1563.14 589.66C1565.34 590.13 1567.71 587.66 1568.45 584.23C1569.19 580.8 1568.01 577.57 1565.81 577.1C1563.61 576.63 1561.24 579.07 1560.5 582.54ZM1601.63 590.48C1600.89 593.95 1602.07 597.14 1604.26 597.61C1606.45 598.08 1608.83 595.61 1609.57 592.17C1610.31 588.73 1609.13 585.51 1606.93 585.05C1604.73 584.59 1602.36 587 1601.63 590.48Z" fill="#454545"/>
<path d="M1577.78 616.4C1577.63 616.398 1577.48 616.368 1577.34 616.31C1576.54 616 1569.53 613.16 1569.34 609.1C1569.25 607.1 1570.66 605.41 1573.55 603.95C1583.13 599.13 1583.26 580.01 1583.26 579.82C1583.26 579.496 1583.39 579.184 1583.62 578.954C1583.85 578.723 1584.16 578.593 1584.48 578.59C1584.8 578.593 1585.11 578.723 1585.34 578.954C1585.57 579.184 1585.7 579.496 1585.7 579.82C1585.7 580.67 1585.56 600.64 1574.7 606.13C1573.6 606.68 1571.77 607.79 1571.83 608.98C1571.91 610.77 1575.65 612.98 1578.28 614.04C1578.55 614.142 1578.77 614.335 1578.91 614.585C1579.05 614.836 1579.1 615.127 1579.04 615.409C1578.99 615.69 1578.84 615.944 1578.62 616.125C1578.4 616.306 1578.12 616.404 1577.83 616.4H1577.78Z" fill="#FF7867"/>
<path d="M1610 612.85C1606.54 612.841 1603.14 612.021 1600.06 610.455C1596.98 608.889 1594.31 606.621 1592.27 603.835C1590.22 601.048 1588.86 597.82 1588.3 594.411C1587.73 591.003 1587.97 587.508 1589 584.21C1590.22 580.311 1592.49 576.826 1595.57 574.142C1598.65 571.459 1602.41 569.682 1606.44 569.011C1610.47 568.339 1614.6 568.798 1618.39 570.338C1622.17 571.877 1625.45 574.436 1627.87 577.73C1630.28 581.024 1631.74 584.923 1632.07 588.994C1632.4 593.065 1631.59 597.147 1629.74 600.788C1627.89 604.428 1625.06 607.483 1621.58 609.612C1618.09 611.742 1614.08 612.863 1610 612.85ZM1610 570.62C1605.71 570.638 1601.54 572.019 1598.09 574.565C1594.64 577.11 1592.08 580.688 1590.8 584.78C1589.21 589.88 1589.71 595.404 1592.19 600.135C1594.67 604.867 1598.93 608.419 1604.03 610.01C1609.13 611.601 1614.65 611.101 1619.39 608.62C1624.12 606.139 1627.67 601.88 1629.26 596.78C1630.05 594.253 1630.33 591.595 1630.09 588.959C1629.85 586.322 1629.09 583.759 1627.86 581.416C1626.63 579.073 1624.95 576.995 1622.91 575.302C1620.88 573.609 1618.53 572.334 1616 571.55C1614.04 570.932 1611.99 570.618 1609.93 570.62H1610ZM1558.63 605.69C1556.39 605.689 1554.17 605.352 1552.03 604.69C1547.15 603.172 1542.95 600.009 1540.14 595.741C1537.34 591.472 1536.1 586.363 1536.63 581.282C1537.17 576.202 1539.46 571.465 1543.1 567.88C1546.73 564.294 1551.5 562.081 1556.59 561.618C1561.68 561.156 1566.77 562.471 1571 565.342C1575.22 568.212 1578.32 572.459 1579.77 577.359C1581.21 582.258 1580.92 587.508 1578.93 592.213C1576.93 596.918 1573.37 600.787 1568.85 603.16C1565.7 604.823 1562.19 605.691 1558.63 605.69ZM1558.63 563.46C1553.82 563.465 1549.16 565.193 1545.51 568.333C1541.86 571.472 1539.45 575.815 1538.73 580.575C1538 585.335 1539.01 590.197 1541.56 594.281C1544.11 598.366 1548.03 601.402 1552.63 602.84C1555.4 603.697 1558.32 603.946 1561.19 603.57C1564.06 603.195 1566.82 602.205 1569.28 600.666C1571.73 599.128 1573.83 597.078 1575.42 594.656C1577.01 592.234 1578.06 589.498 1578.49 586.634C1578.93 583.769 1578.74 580.845 1577.95 578.059C1577.15 575.273 1575.76 572.693 1573.87 570.493C1571.99 568.293 1569.65 566.526 1567.02 565.312C1564.39 564.099 1561.53 563.467 1558.63 563.46Z" fill="white"/>
<path d="M1588.86 591.29H1588.7L1578.93 589.61C1578.68 589.557 1578.47 589.413 1578.32 589.208C1578.18 589.002 1578.12 588.749 1578.15 588.5C1578.2 588.254 1578.35 588.038 1578.55 587.893C1578.76 587.748 1579.01 587.687 1579.26 587.72L1589.02 589.4C1589.22 589.479 1589.39 589.62 1589.5 589.803C1589.62 589.985 1589.67 590.2 1589.65 590.415C1589.63 590.629 1589.55 590.832 1589.4 590.994C1589.26 591.155 1589.07 591.266 1588.86 591.31V591.29ZM1595.17 625C1594.67 629.043 1592.62 632.734 1589.45 635.296C1586.28 637.858 1582.25 639.091 1578.19 638.736C1574.13 638.381 1570.37 636.466 1567.69 633.392C1565.02 630.319 1563.64 626.329 1563.85 622.26L1595.17 625Z" fill="white"/>
<path d="M1588.21 519.75C1588.21 519.75 1591.36 538.68 1543.73 545.05C1543.73 545.05 1530.34 514.54 1545.2 489.91L1588.21 519.75Z" fill="#FF9D5A"/>
<path d="M1989.42 673.13C1987.26 672.742 1985.03 673.131 1983.12 674.23C1981.22 675.328 1979.77 677.063 1979.02 679.13L1969.32 696.9L1940 646.52C1939.7 645.989 1939.29 645.527 1938.8 645.163C1938.3 644.799 1937.74 644.541 1937.15 644.405C1936.55 644.268 1935.93 644.257 1935.33 644.372C1934.73 644.486 1934.16 644.724 1933.66 645.07C1932.81 645.68 1932.2 646.56 1931.92 647.566C1931.64 648.571 1931.72 649.642 1932.13 650.6L1947.43 687.6L1915.94 650.69C1915.57 650.249 1915.11 649.887 1914.6 649.625C1914.08 649.362 1913.52 649.205 1912.95 649.162C1912.37 649.12 1911.79 649.192 1911.25 649.375C1910.7 649.559 1910.19 649.849 1909.76 650.23C1908.91 650.994 1908.38 652.055 1908.28 653.197C1908.18 654.338 1908.53 655.473 1909.24 656.37L1909.48 656.72C1909.35 656.63 1938.79 693.82 1938.79 693.82L1908.18 663.64C1907.57 663.043 1906.79 662.666 1905.94 662.568C1905.1 662.47 1904.25 662.657 1903.52 663.1C1903.07 663.382 1902.68 663.755 1902.38 664.197C1902.08 664.638 1901.88 665.138 1901.78 665.663C1901.69 666.188 1901.7 666.727 1901.83 667.245C1901.96 667.763 1902.19 668.248 1902.52 668.67L1929 702.89L1899.8 683.4C1898.04 682.28 1896.67 682.11 1895.25 683.66C1894.95 683.969 1894.72 684.333 1894.56 684.73C1894.29 685.521 1894.26 686.372 1894.47 687.181C1894.67 687.99 1895.11 688.722 1895.72 689.29L1949.6 753.15L1986.42 740.15C1986.59 733.142 1986.35 726.129 1985.68 719.15C1984.57 706 1989.42 673.13 1989.42 673.13Z" fill="#FFD3CF"/>
<path d="M2206.49 351C2206.49 351 2180.82 474.44 2254.49 484.75L2254.6 523.18L2300.41 555L2362.78 514.91L2377.14 519.77L2356.46 367.66L2206.49 351Z" fill="#FFCEC8"/>
<path d="M2206.49 351C2206.49 351 2225.8 385.28 2268.77 362.83C2268.77 362.83 2284.03 356.78 2290.28 374.66C2292.48 380.96 2295.53 388.3 2301.54 391.91C2302.59 392.589 2303.78 393.031 2305.01 393.203C2306.25 393.376 2307.51 393.276 2308.71 392.91C2310.38 392.31 2311.71 391.06 2313.2 390.08C2320.27 385.37 2330.64 387.62 2336.13 394.08C2347.46 407.49 2338.54 428.26 2321.05 429.16C2317.96 429.323 2314.86 429.229 2311.79 428.88C2311.79 428.88 2314.39 461.49 2368.44 455.74L2359.38 354.8C2359.38 354.8 2360.74 329.33 2338.38 340.28L2339.79 323.28C2339.79 323.28 2317.61 345.34 2276.65 326.49C2235.69 307.64 2213.92 293.6 2196.28 315.69C2178.64 337.78 2192.07 360.96 2203.95 365.1L2206.49 351Z" fill="#464646"/>
<path d="M2254.46 484.77C2254.46 484.77 2298.05 485.33 2319.46 462.08C2319.46 462.08 2308.78 493.19 2254.46 501.64V484.77Z" fill="#FFB6AD"/>
<path d="M2272.87 411.91C2273.31 414.69 2271.99 417.22 2269.93 417.54C2267.87 417.86 2265.83 415.87 2265.4 413.08C2264.97 410.29 2266.28 407.77 2268.34 407.45C2270.4 407.13 2272.43 409.12 2272.87 411.91Z" fill="#464646"/>
<path d="M2268.93 425.77C2265.34 425.762 2261.86 424.472 2259.14 422.13C2256.41 419.789 2254.61 416.551 2254.06 413L2252.22 401.29L2289.78 395.38L2291.62 407.09C2291.93 409.047 2291.85 411.046 2291.39 412.972C2290.93 414.899 2290.09 416.715 2288.92 418.318C2287.76 419.92 2286.29 421.277 2284.6 422.31C2282.91 423.343 2281.03 424.033 2279.07 424.34L2271.3 425.56C2270.52 425.69 2269.72 425.76 2268.93 425.77ZM2254.76 403.17L2256.26 412.69C2256.79 416.058 2258.64 419.077 2261.39 421.083C2264.15 423.09 2267.59 423.919 2270.96 423.39L2278.72 422.17C2280.39 421.908 2281.99 421.32 2283.43 420.44C2284.87 419.559 2286.12 418.403 2287.12 417.038C2288.11 415.673 2288.83 414.126 2289.23 412.484C2289.62 410.842 2289.69 409.138 2289.43 407.47L2287.93 397.96L2254.76 403.17Z" fill="white"/>
<path d="M2235.35 417.81C2235.79 420.59 2234.47 423.12 2232.4 423.44C2230.33 423.76 2228.31 421.77 2227.87 418.98C2227.43 416.19 2228.75 413.67 2230.87 413.35C2232.99 413.03 2234.91 415 2235.35 417.81Z" fill="#464646"/>
<path d="M2221.47 433.24C2217.88 433.229 2214.41 431.94 2211.69 429.603C2208.96 427.267 2207.16 424.036 2206.6 420.49L2204.76 408.78L2242.32 402.88L2244.17 414.59C2244.79 418.541 2243.81 422.575 2241.45 425.807C2239.1 429.039 2235.56 431.205 2231.61 431.83L2223.85 433.05C2223.06 433.173 2222.27 433.236 2221.47 433.24ZM2207.31 410.63L2208.8 420.15C2209.33 423.518 2211.18 426.537 2213.93 428.543C2216.69 430.55 2220.13 431.379 2223.5 430.85L2231.26 429.63C2234.63 429.099 2237.65 427.252 2239.66 424.496C2241.66 421.74 2242.5 418.299 2241.97 414.93L2240.47 405.42L2207.31 410.63ZM2249.56 445.93C2250.55 450.6 2253.32 454.702 2257.28 457.373C2261.24 460.043 2266.08 461.073 2270.78 460.246C2275.48 459.419 2279.68 456.8 2282.49 452.939C2285.3 449.079 2286.5 444.279 2285.84 439.55L2249.56 445.93Z" fill="white"/>
<path d="M2246.97 398.55L2239.6 432.55L2255.22 434.1L2246.97 398.55Z" fill="#FFCEC8"/>
<path d="M2255.22 435.21H2255.11L2239.49 433.66C2239.33 433.643 2239.18 433.594 2239.05 433.516C2238.91 433.439 2238.79 433.335 2238.7 433.21C2238.61 433.082 2238.55 432.937 2238.51 432.784C2238.48 432.631 2238.48 432.474 2238.51 432.32L2245.88 398.32C2245.96 398.052 2246.14 397.824 2246.39 397.683C2246.63 397.542 2246.92 397.497 2247.19 397.557C2247.46 397.618 2247.71 397.779 2247.87 398.009C2248.03 398.239 2248.1 398.522 2248.06 398.8L2241 431.57L2255.38 432.99C2255.67 433.005 2255.95 433.136 2256.15 433.354C2256.35 433.573 2256.45 433.861 2256.43 434.155C2256.42 434.449 2256.29 434.726 2256.07 434.924C2255.85 435.122 2255.56 435.225 2255.27 435.21H2255.22Z" fill="#FF7867"/>
<path d="M2276 387C2276 387.599 2275.77 388.175 2275.36 388.614C2274.95 389.053 2274.4 389.322 2273.8 389.37L2260.8 390.37C2259.88 390.37 2259 390.006 2258.35 389.357C2257.7 388.708 2257.34 387.828 2257.34 386.91C2257.34 386.427 2257.44 385.949 2257.63 385.507C2257.83 385.065 2258.11 384.668 2258.47 384.343C2258.83 384.017 2259.25 383.769 2259.71 383.616C2260.16 383.462 2260.65 383.406 2261.13 383.45L2273.81 384.64C2274.4 384.69 2274.96 384.959 2275.36 385.396C2275.77 385.833 2275.99 386.405 2276 387ZM2222.58 399.52C2222.73 400.101 2223.09 400.604 2223.59 400.93C2224.09 401.257 2224.7 401.382 2225.29 401.28L2238.1 399C2238.54 398.888 2238.96 398.69 2239.32 398.417C2239.69 398.144 2240 397.802 2240.23 397.41C2240.46 397.018 2240.62 396.584 2240.68 396.133C2240.75 395.682 2240.72 395.222 2240.61 394.78C2240.49 394.313 2240.27 393.876 2239.97 393.497C2239.68 393.118 2239.3 392.805 2238.88 392.579C2238.45 392.352 2237.98 392.216 2237.5 392.18C2237.02 392.145 2236.53 392.209 2236.08 392.37L2224.08 396.66C2223.52 396.859 2223.06 397.258 2222.78 397.779C2222.51 398.301 2222.43 398.908 2222.58 399.48V399.52Z" fill="#464646"/>
<path d="M2288.33 398.8L2207.11 411.57C2206.85 411.613 2206.58 411.603 2206.32 411.542C2206.07 411.481 2205.83 411.37 2205.61 411.215C2205.4 411.059 2205.22 410.863 2205.08 410.638C2204.94 410.412 2204.85 410.161 2204.81 409.9C2204.77 409.638 2204.78 409.371 2204.84 409.113C2204.9 408.856 2205.01 408.613 2205.17 408.399C2205.33 408.185 2205.52 408.004 2205.75 407.867C2205.98 407.73 2206.23 407.639 2206.49 407.6L2287.71 394.83C2287.97 394.787 2288.24 394.797 2288.5 394.859C2288.75 394.92 2289 395.033 2289.21 395.189C2289.43 395.345 2289.61 395.542 2289.74 395.769C2289.88 395.996 2289.97 396.248 2290.01 396.51C2290.05 396.771 2290.04 397.037 2289.98 397.294C2289.92 397.55 2289.8 397.792 2289.65 398.005C2289.49 398.218 2289.29 398.398 2289.07 398.534C2288.84 398.671 2288.59 398.761 2288.33 398.8Z" fill="#FFA680"/>
<path d="M2284.73 970.54C2285.44 973.513 2285.75 976.566 2285.66 979.62V979.69L2291.75 1039.03H2427.63L2404.51 805.43L2404.4 804.32L2404.15 801.75L2404.03 800.61L2403.83 798.61L2403.66 796.9L2403.52 795.46L2403.42 794.46V794.36L2403.27 792.84L2403.19 792.07L2403.02 790.25L2402.96 789.7L2402.61 786.15L2402.55 785.53L2374.83 505.53L2302.75 549.29L2254.47 518.18L2254.6 505.53L2238.43 518.93L2284.19 965.24L2284.73 970.54Z" fill="#FF7867"/>
<path d="M2081.81 842.29L2006.81 718.38L1923.6 761.38L2008.66 919.96C2008.66 919.96 2015.46 932.27 2016.03 933.51C2038.57 982.85 2099.13 986.91 2139.35 950.51C2140.58 949.4 2141.83 948.19 2143.07 947.01L2083.07 841.09L2081.81 842.29Z" fill="#464646"/>
<path d="M2143.42 1039H2291.87C2282.87 944.86 2241.65 518.21 2238.42 518.87C2126.69 541.63 2057.98 605.87 2035.6 698.02C2023.07 749.61 2024.49 894.7 2024.7 912.08L2142.94 947.69C2143.29 927.61 2140.53 899.36 2142.17 871.54L2143.42 1039Z" fill="#464646"/>
<path d="M2142.17 924C2141.88 924 2141.6 923.886 2141.39 923.682C2141.18 923.478 2141.07 923.201 2141.06 922.91L2135.19 668.39C2135.19 668.096 2135.31 667.813 2135.52 667.605C2135.72 667.397 2136.01 667.28 2136.3 667.28C2136.59 667.28 2136.88 667.397 2137.08 667.605C2137.29 667.813 2137.41 668.096 2137.41 668.39L2143.28 922.91C2143.28 923.056 2143.26 923.201 2143.21 923.337C2143.15 923.473 2143.08 923.598 2142.98 923.704C2142.88 923.81 2142.76 923.895 2142.62 923.954C2142.49 924.014 2142.35 924.046 2142.2 924.05L2142.17 924Z" fill="#333333"/>
<path d="M2595 1039C2595.4 1024.66 2595.8 1010.33 2596.19 996C2612.34 995.757 2628 990.401 2640.92 980.7C2641.33 980.4 2641.73 980.09 2642.12 979.78C2650.71 972.928 2657.43 964.022 2661.67 953.885C2665.91 943.748 2667.53 932.707 2666.37 921.78L2649.6 757C2647.64 741.356 2644.64 725.861 2640.6 710.62C2618.73 629.1 2567.86 564.71 2487.19 539.91L2389.73 510L2374.82 505.55L2427.25 1039H2595Z" fill="#464646"/>
<path d="M2343.81 1034.08C2343.48 1034.08 2343.16 1033.96 2342.91 1033.74C2342.66 1033.53 2342.49 1033.23 2342.44 1032.9C2341.86 1028.99 2341.63 1025.27 2341.44 1021.67C2341.32 1019.55 2341.19 1017.35 2340.98 1015.12C2340.43 1008.23 2339.73 1001.22 2339.05 994.45C2338.37 987.68 2337.67 980.64 2337.12 973.73C2336.98 971.61 2336.87 969.47 2336.77 967.4C2336.59 961.065 2335.98 954.75 2334.93 948.5C2334.08 943.4 2331.51 939.33 2328.79 935.01C2328.15 934.01 2327.49 932.95 2326.85 931.89C2326.16 930.954 2325.69 929.876 2325.46 928.735C2325.24 927.593 2325.28 926.416 2325.57 925.29C2326.21 923.32 2327.09 921.438 2328.2 919.69C2329.19 918.157 2329.98 916.504 2330.55 914.77C2331.31 911.77 2328.46 910.02 2324.65 908.12C2323.34 907.532 2322.17 906.677 2321.21 905.609C2320.26 904.541 2319.53 903.285 2319.09 901.92C2318.78 900.769 2318.73 899.566 2318.92 898.392C2319.12 897.217 2319.57 896.098 2320.23 895.11C2320.28 895.019 2320.35 894.935 2320.42 894.86C2320.85 894.311 2321.14 893.661 2321.26 892.97C2321.39 892.416 2321.58 891.877 2321.82 891.36C2321.87 891.257 2321.93 891.163 2322.01 891.08C2325.7 886.77 2328.01 883.23 2329.37 879.64C2323.91 811.41 2317.93 742.24 2312.15 675.35C2308.59 634.16 2304.9 591.57 2301.38 549.6C2301.36 549.418 2301.38 549.235 2301.44 549.061C2301.49 548.887 2301.58 548.725 2301.7 548.586C2301.82 548.446 2301.96 548.331 2302.12 548.246C2302.29 548.162 2302.46 548.111 2302.64 548.095C2302.83 548.079 2303.01 548.099 2303.18 548.155C2303.36 548.21 2303.52 548.298 2303.66 548.416C2303.8 548.533 2303.91 548.677 2304 548.839C2304.08 549.001 2304.13 549.178 2304.15 549.36C2307.67 591.36 2311.36 633.92 2314.92 675.11C2320.71 742.11 2326.7 811.4 2332.17 879.74C2332.19 879.94 2332.16 880.142 2332.09 880.33C2330.6 884.33 2328.18 888.13 2324.24 892.74C2324.12 893.067 2324.02 893.401 2323.94 893.74C2323.72 894.844 2323.23 895.876 2322.51 896.74C2322.08 897.391 2321.79 898.126 2321.66 898.896C2321.54 899.666 2321.57 900.455 2321.77 901.21C2322.11 902.197 2322.66 903.102 2323.37 903.869C2324.07 904.637 2324.93 905.25 2325.89 905.67C2329.36 907.41 2334.61 910.03 2333.24 915.53C2332.6 917.5 2331.72 919.382 2330.61 921.13C2329.62 922.664 2328.83 924.317 2328.26 926.05C2328.06 926.8 2328.05 927.585 2328.21 928.343C2328.36 929.102 2328.7 929.813 2329.18 930.42C2329.8 931.42 2330.46 932.51 2331.1 933.52C2333.85 937.87 2336.69 942.38 2337.63 948.01C2338.7 954.372 2339.33 960.801 2339.51 967.25C2339.61 969.31 2339.71 971.44 2339.85 973.52C2340.4 980.39 2341.1 987.39 2341.78 994.17C2342.46 1000.95 2343.16 1007.97 2343.71 1014.87C2343.92 1017.13 2344.05 1019.35 2344.18 1021.49C2344.4 1025.2 2344.6 1028.7 2345.18 1032.49C2345.21 1032.67 2345.2 1032.85 2345.15 1033.03C2345.11 1033.21 2345.03 1033.38 2344.92 1033.52C2344.81 1033.67 2344.68 1033.79 2344.52 1033.89C2344.36 1033.98 2344.19 1034.04 2344.01 1034.07L2343.81 1034.08Z" fill="white"/>
<path d="M2271 569.17C2270.78 569.171 2270.57 569.119 2270.37 569.02C2270.18 568.921 2270.01 568.777 2269.88 568.6L2237.74 524.48C2237.52 524.182 2237.43 523.809 2237.49 523.444C2237.55 523.08 2237.75 522.753 2238.04 522.535C2238.34 522.318 2238.72 522.228 2239.08 522.285C2239.45 522.342 2239.77 522.542 2239.99 522.84L2271.39 565.95L2302.01 548.27C2302.22 548.152 2302.46 548.09 2302.7 548.09C2302.95 548.09 2303.19 548.152 2303.4 548.27L2328.48 562.76L2376.28 527.98C2376.43 527.872 2376.6 527.795 2376.77 527.752C2376.95 527.709 2377.13 527.701 2377.32 527.73C2377.5 527.758 2377.67 527.822 2377.83 527.917C2377.98 528.012 2378.12 528.137 2378.22 528.285C2378.33 528.433 2378.41 528.6 2378.45 528.778C2378.5 528.956 2378.5 529.14 2378.48 529.321C2378.45 529.501 2378.38 529.675 2378.29 529.831C2378.19 529.987 2378.07 530.122 2377.92 530.23L2329.39 565.54C2329.17 565.696 2328.91 565.787 2328.64 565.801C2328.37 565.815 2328.1 565.752 2327.87 565.62L2302.7 551.08L2271.7 568.99C2271.49 569.108 2271.24 569.17 2271 569.17Z" fill="white"/>
<path d="M2293.63 599.12C2297.04 599.12 2299.81 596.353 2299.81 592.94C2299.81 589.527 2297.04 586.76 2293.63 586.76C2290.22 586.76 2287.45 589.527 2287.45 592.94C2287.45 596.353 2290.22 599.12 2293.63 599.12Z" fill="white"/>
<path d="M2303.92 736.09C2307.33 736.09 2310.1 733.323 2310.1 729.91C2310.1 726.497 2307.33 723.73 2303.92 723.73C2300.51 723.73 2297.74 726.497 2297.74 729.91C2297.74 733.323 2300.51 736.09 2303.92 736.09Z" fill="white"/>
<path d="M2320.39 860C2320.39 861.225 2320.03 862.422 2319.35 863.44C2318.67 864.458 2317.7 865.252 2316.57 865.72C2315.43 866.188 2314.19 866.31 2312.99 866.07C2311.79 865.831 2310.68 865.24 2309.82 864.373C2308.95 863.507 2308.37 862.403 2308.13 861.201C2307.89 860 2308.01 858.755 2308.48 857.624C2308.95 856.493 2309.75 855.527 2310.77 854.848C2311.79 854.169 2312.99 853.808 2314.21 853.81C2315.02 853.81 2315.83 853.97 2316.58 854.281C2317.33 854.593 2318.01 855.049 2318.58 855.624C2319.16 856.199 2319.61 856.881 2319.92 857.632C2320.23 858.383 2320.39 859.188 2320.39 860ZM2334.84 1012.57C2334.84 1013.79 2334.48 1014.99 2333.8 1016.01C2333.12 1017.03 2332.15 1017.82 2331.02 1018.29C2329.89 1018.76 2328.64 1018.88 2327.44 1018.64C2326.24 1018.4 2325.14 1017.81 2324.27 1016.95C2323.41 1016.08 2322.82 1014.98 2322.58 1013.78C2322.34 1012.58 2322.46 1011.33 2322.93 1010.2C2323.4 1009.07 2324.19 1008.1 2325.21 1007.42C2326.23 1006.74 2327.43 1006.38 2328.65 1006.38C2330.29 1006.38 2331.87 1007.03 2333.03 1008.19C2334.19 1009.35 2334.84 1010.93 2334.84 1012.57Z" fill="white"/>
<path d="M1941.18 776.46C1940.17 775.432 1939.48 774.127 1939.21 772.709C1938.93 771.291 1939.09 769.824 1939.65 768.493C1940.21 767.163 1941.15 766.029 1942.36 765.235C1943.57 764.441 1944.98 764.022 1946.42 764.032C1947.87 764.041 1949.28 764.479 1950.47 765.29C1951.67 766.1 1952.6 767.247 1953.14 768.585C1953.68 769.923 1953.82 771.392 1953.52 772.806C1953.23 774.22 1952.53 775.516 1951.5 776.53C1950.12 777.886 1948.26 778.64 1946.33 778.627C1944.39 778.614 1942.54 777.835 1941.18 776.46ZM1949.99 767.78C1949.28 767.071 1948.38 766.588 1947.39 766.392C1946.41 766.197 1945.39 766.297 1944.46 766.681C1943.54 767.065 1942.75 767.714 1942.19 768.548C1941.63 769.382 1941.34 770.362 1941.34 771.365C1941.34 772.368 1941.63 773.348 1942.19 774.182C1942.75 775.015 1943.54 775.665 1944.46 776.049C1945.39 776.433 1946.41 776.533 1947.39 776.337C1948.38 776.142 1949.28 775.659 1949.99 774.95C1950.46 774.48 1950.84 773.922 1951.09 773.307C1951.35 772.693 1951.48 772.033 1951.48 771.367C1951.49 770.701 1951.35 770.041 1951.1 769.425C1950.85 768.81 1950.47 768.251 1950 767.78H1949.99ZM1944.42 802.58C1944.35 802.505 1944.28 802.421 1944.23 802.33C1944.09 802.07 1944.06 801.765 1944.14 801.483C1944.23 801.2 1944.42 800.962 1944.68 800.82L2016.3 762C2016.57 761.859 2016.88 761.83 2017.16 761.918C2017.45 762.006 2017.69 762.205 2017.83 762.47C2017.97 762.735 2018 763.045 2017.91 763.332C2017.82 763.619 2017.63 763.859 2017.36 764L1945.74 802.83C1945.52 802.938 1945.28 802.972 1945.04 802.927C1944.8 802.882 1944.58 802.76 1944.42 802.58Z" fill="#333333"/>
<path d="M2493.56 1009.99L2356.53 1028.58L2341.2 933.9L2502.49 901.73L2493.56 1009.99Z" fill="#464646"/>
<path d="M2380.85 927.1C2380.59 927.099 2380.35 927.009 2380.15 926.848C2379.95 926.686 2379.81 926.461 2379.76 926.21C2379.73 926.066 2379.73 925.918 2379.76 925.774C2379.79 925.63 2379.84 925.493 2379.93 925.371C2380.01 925.25 2380.11 925.145 2380.24 925.064C2380.36 924.983 2380.5 924.928 2380.64 924.9L2535.79 893.9L2495 649.27C2494.98 649.126 2494.98 648.979 2495.01 648.837C2495.05 648.695 2495.11 648.56 2495.19 648.442C2495.27 648.323 2495.38 648.222 2495.51 648.144C2495.63 648.067 2495.77 648.014 2495.91 647.99C2496.05 647.966 2496.2 647.97 2496.34 648.003C2496.49 648.035 2496.62 648.095 2496.74 648.18C2496.86 648.264 2496.96 648.372 2497.04 648.495C2497.11 648.619 2497.17 648.756 2497.19 648.9L2538.19 894.65C2538.24 894.935 2538.18 895.228 2538.01 895.465C2537.85 895.703 2537.59 895.867 2537.31 895.92L2381.1 927.08L2380.85 927.1ZM2357.5 1029.65C2357.22 1029.65 2356.95 1029.54 2356.74 1029.35C2356.54 1029.16 2356.41 1028.9 2356.39 1028.62C2356.37 1028.33 2356.46 1028.06 2356.64 1027.84C2356.82 1027.62 2357.07 1027.48 2357.35 1027.44L2596 994.89C2596.28 994.878 2596.55 994.971 2596.77 995.15C2596.98 995.329 2597.12 995.582 2597.16 995.858C2597.19 996.135 2597.13 996.415 2596.97 996.645C2596.81 996.875 2596.57 997.037 2596.3 997.1L2357.62 1029.64L2357.5 1029.65ZM2371.5 1012.74C2370.98 1012.74 2370.47 1012.68 2369.96 1012.57C2368.55 1012.27 2367.26 1011.55 2366.26 1010.51C2365.25 1009.48 2364.58 1008.17 2364.32 1006.75C2364.06 1005.33 2364.23 1003.86 2364.81 1002.54C2365.38 1001.21 2366.34 1000.09 2367.55 999.31C2368.35 998.785 2369.25 998.426 2370.19 998.254C2371.14 998.082 2372.1 998.101 2373.04 998.31C2374.8 998.696 2376.35 999.715 2377.4 1001.17C2378.45 1002.63 2378.92 1004.43 2378.73 1006.21C2378.54 1008 2377.7 1009.66 2376.36 1010.86C2375.03 1012.06 2373.3 1012.73 2371.5 1012.74ZM2371.5 1000.36C2370.28 1000.41 2369.12 1000.89 2368.22 1001.72C2367.33 1002.56 2366.77 1003.69 2366.64 1004.9C2366.51 1006.12 2366.82 1007.34 2367.52 1008.34C2368.22 1009.34 2369.26 1010.06 2370.44 1010.36C2371.75 1010.63 2373.12 1010.38 2374.24 1009.65C2375.36 1008.92 2376.15 1007.78 2376.44 1006.47C2376.71 1005.16 2376.46 1003.79 2375.73 1002.67C2375 1001.55 2373.86 1000.76 2372.55 1000.47C2372.2 1000.4 2371.85 1000.36 2371.49 1000.36H2371.5Z" fill="#333333"/>
<path d="M2399.18 1024C2398.91 1024 2398.66 1023.9 2398.46 1023.73C2398.26 1023.56 2398.12 1023.32 2398.08 1023.06L2384.76 939.12C2384.74 938.976 2384.74 938.828 2384.78 938.686C2384.81 938.543 2384.87 938.409 2384.96 938.291C2385.04 938.173 2385.15 938.072 2385.28 937.996C2385.4 937.919 2385.54 937.868 2385.68 937.845C2385.83 937.822 2385.98 937.828 2386.12 937.862C2386.26 937.896 2386.4 937.958 2386.51 938.043C2386.63 938.129 2386.73 938.238 2386.81 938.362C2386.89 938.487 2386.94 938.626 2386.96 938.77L2400.28 1022.71C2400.33 1023 2400.26 1023.3 2400.08 1023.54C2399.91 1023.78 2399.65 1023.94 2399.36 1023.99L2399.18 1024Z" fill="#333333"/>
<path d="M2250.33 1021.44L2258.78 1010.52L2258.11 1035.52C2258.1 1036.19 2258.25 1036.85 2258.54 1037.46C2258.83 1038.07 2259.25 1038.6 2259.78 1039.01H2265.25C2266.04 1038.4 2266.6 1037.53 2266.82 1036.55L2270.29 1020.19L2284.95 1000.83L2271.79 1019L2272.54 1039.06H2281.24L2284.91 1023.86L2295.33 1009.96C2295.43 1009.82 2295.57 1009.72 2295.73 1009.67C2295.9 1009.63 2296.07 1009.63 2296.23 1009.69C2296.34 1009.73 2296.43 1009.79 2296.51 1009.87C2296.59 1009.96 2296.66 1010.05 2296.7 1010.16C2296.73 1010.27 2296.75 1010.38 2296.74 1010.5C2296.73 1010.61 2296.7 1010.72 2296.64 1010.82L2288.97 1024.35L2285.79 1039.06H2296.67L2302.03 1029.39L2308.86 1018L2319.53 1012.07C2336.24 1018.24 2345.04 1008.55 2345.04 1008.55L2353.45 1009.81L2344.74 955.34C2339.22 956.717 2333.78 958.406 2328.45 960.4L2283.17 976.82L2260.57 990.38C2258.23 991.79 2256.35 993.855 2255.17 996.32L2244.77 1018.04C2244.43 1018.77 2244.37 1019.6 2244.61 1020.37C2244.84 1021.14 2245.34 1021.8 2246.03 1022.22C2246.71 1022.64 2247.53 1022.8 2248.32 1022.66C2249.11 1022.52 2249.83 1022.1 2250.33 1021.47V1021.44Z" fill="#FFCEC8"/>
<path d="M2259.63 1011.26H2259.56C2259.49 1011.25 2259.42 1011.23 2259.35 1011.19C2259.29 1011.15 2259.23 1011.1 2259.19 1011.04C2259.14 1010.99 2259.11 1010.92 2259.09 1010.85C2259.07 1010.78 2259.07 1010.7 2259.08 1010.63L2259.26 1009.26C2259.52 1007.29 2260.45 1005.47 2261.9 1004.1L2278.69 988.3C2278.79 988.196 2278.94 988.137 2279.08 988.137C2279.23 988.137 2279.37 988.196 2279.48 988.3C2279.53 988.35 2279.57 988.411 2279.6 988.478C2279.63 988.545 2279.65 988.617 2279.65 988.69C2279.65 988.763 2279.63 988.835 2279.6 988.902C2279.57 988.969 2279.53 989.03 2279.48 989.08L2262.7 1004.89C2261.44 1006.08 2260.62 1007.66 2260.39 1009.38L2260.21 1010.76C2260.2 1010.83 2260.19 1010.9 2260.15 1010.96C2260.12 1011.03 2260.08 1011.08 2260.02 1011.13C2259.97 1011.18 2259.91 1011.21 2259.84 1011.23C2259.77 1011.26 2259.7 1011.27 2259.63 1011.26ZM2272.07 1019.71C2272.01 1019.72 2271.94 1019.72 2271.88 1019.71C2271.81 1019.69 2271.75 1019.65 2271.69 1019.6C2271.64 1019.55 2271.59 1019.49 2271.56 1019.43C2271.53 1019.36 2271.51 1019.29 2271.51 1019.21C2271.51 1019.14 2271.52 1019.07 2271.55 1019L2272.08 1017.56C2272.1 1017.5 2272.13 1017.45 2272.17 1017.41L2284.58 1001.77C2284.62 1001.7 2284.68 1001.64 2284.74 1001.6C2284.81 1001.55 2284.88 1001.52 2284.96 1001.51C2285.04 1001.49 2285.12 1001.5 2285.2 1001.51C2285.27 1001.53 2285.35 1001.57 2285.41 1001.62C2285.47 1001.67 2285.52 1001.73 2285.56 1001.8C2285.59 1001.87 2285.62 1001.95 2285.62 1002.03C2285.62 1002.11 2285.61 1002.19 2285.58 1002.26C2285.55 1002.34 2285.51 1002.4 2285.45 1002.46L2273.09 1018L2272.59 1019.35C2272.55 1019.46 2272.48 1019.55 2272.39 1019.61C2272.29 1019.68 2272.18 1019.71 2272.07 1019.71Z" fill="#FF7867"/>
<path d="M2109.36 894.42C2109.13 894.419 2108.91 894.357 2108.71 894.241C2108.51 894.125 2108.34 893.959 2108.23 893.76L2030 758.85C2029.91 758.701 2029.86 758.536 2029.84 758.366C2029.81 758.195 2029.82 758.022 2029.87 757.856C2029.91 757.689 2029.99 757.534 2030.1 757.397C2030.2 757.261 2030.33 757.146 2030.48 757.06C2030.63 756.974 2030.79 756.918 2030.96 756.896C2031.13 756.873 2031.31 756.885 2031.47 756.929C2031.64 756.974 2031.8 757.051 2031.93 757.155C2032.07 757.26 2032.18 757.391 2032.27 757.54L2110.54 892.45C2110.71 892.75 2110.76 893.106 2110.67 893.441C2110.58 893.776 2110.37 894.063 2110.07 894.24C2109.85 894.365 2109.61 894.427 2109.36 894.42Z" fill="#333333"/>
</svg>
